<?xml version="1.0" encoding="utf-8"?>
<!-- Generator: Adobe Illustrator 22.1.0, SVG Export Plug-In . SVG Version: 6.00 Build 0)  -->
<svg version="1.1" id="Layer_1" xmlns="http://www.w3.org/2000/svg" xmlns:xlink="http://www.w3.org/1999/xlink" x="0px" y="0px"
	 viewBox="0 0 641.5 950" style="enable-background:new 0 0 641.5 950;" xml:space="preserve">
<style type="text/css">
	.st0{opacity:0.2;fill:#3C7A9F;stroke:#FFFFFF;stroke-miterlimit:10;enable-background:new    ;}
	.st1{fill:#3C7A9F;stroke:#FFFFFF;stroke-miterlimit:10;}
	.st2{fill:#FFFFFF;}
	.st3{font-family:'OpenSans';}
	.st4{font-size:16px;}
	.st5{fill:#3C7A9F;}
</style>
<path id="scotland" class="st0" d="M311.5,0.7L310,1.8l-0.6,2l3.6,2.8l-0.2,1.2l-1,1.6l-5.1-2.1L303,8.8l-1.5-1.3l1-1.6l-7.2-0.1
	l-3.6,2.7l-4.1,2.2l-5.6,0.7l-3.5-1.1l-2.5,0.8l-1-3.5l-1.5,1.1l-3,3.2l-3.3-0.3l-1.3,2l-2.2-0.8l-1.9,2.3l-1.2,0.4l-0.3-1.5
	l-4.6-0.2l-1.9,3l-3.9,1l1.6-3.5l-0.1-2.3l-1.6,0.7l0.3-1.4l-3-2L242.1,9l-0.4,4l-1.5,2.5l-1.2-0.1l-0.7-3.7l-2.8-0.9l-2.1-2.9
	l-1.7-2.2l-2.9,4.4V6.3L222,4.4l-3.5-1.7L217.9,8l-2.6,3.5l-3.4,2.3l-0.3,4.8l1.6,1l1.6,0.4l-1.2,1.6l-2.3,2.4l0.4,1.2l1,1l1.3,0.1
	l2.6,3.6l-1.5,0.3l-2.5-2.4l-2.9-2.1l-0.6,2.5l-1.4,2.2l1,1.4l-1.7,0.4l0.5,1.4l0.1,1.8L209,35l0.4,1.8l-0.1,2.2l1.7,1.9l4.8,3
	l-2.4,0.1l-2.8-2.2l-1.6,0.7l-2.3,0.8l-2.7-0.2l-1.9-1.8l-1.1,1.1l1.5,1.2l-3.4,2.4l-0.5-1.8l-1-1.3l-1.2-0.1l-0.8-1.5l-1.5,3.5
	l1.9,3l1.5,1.1l0.9,2.5l0.8,1.8l3,1.8l-2.7,0.6l2.1,1.9H199l1.6,1.1l-0.9,3L199,63l-1.9-1.8l-1.2,0.3l-0.8,2.1l-1.5-4l-1.9-1.3
	L190,60l0.2,2.8l2,1.5l-0.8,1.3l1.7,1.1l2.4,1l1.5,1.8l1,3.2l4.5,2.5l2.7,0.3l-1.5,2.4l1.8,3.2l-4-1.7l-3.7,0.7l-3.2-3.3l-2.6,0.7
	l3.1,4.9l-4.2-2.6l-1.3,4.2l-1.7,1.8l-4.1-2.1l-0.9-5.3l-3.3-0.9l-2.3,3.8l0.4,3.3l2.2,1l1,1.7l-0.6,3l1,1.8l-2-0.8l-0.7,0.9
	l1.2,2.3l-3.9-3.6l-0.8-3.8l0.3-3.3l-4.5-0.8l-3.2,1.2l-0.9,11.9l3.2,2.2l3.7,0.3l0.2,1.8l0.4,2.3l-3.1-1.8l-3,1l-2.4,6.1l3.9,2.1
	l1.4,4.2l2.5,1.1l0.8,2.8l-4.3,0.7l-2.2-3.6l-3.1-0.7l-2.6,11.4l0.6,3.4l2.9,0.2l-1,4.9l-0.6,3.1l1.8,2.2l3.9-0.8l6.9-4.1l0.9,1.2
	l-2.5,1.7l3,1.8l5.1-3.7l3.6-3l0.1,2.2l-5.5,5l-3,0.2l-4.4,1.3l-3,1.4l-1.5,3.5l2.5,1l2.1-0.4l2.4,1.2l3.9-0.4l2.1-1.2l0.9-0.3
	l-0.8,2.5l6.2,5.2l-2.5,2l-5.2-6.7l-3.2,1l-3.2,0.8l-1.4,2.4l1.9,1.2l-3,3.1l-1.5,2.5l1.6,2.4l3.2-0.1l3.2,3.8l3.8,1.5l-1.6,1.7
	l-3.2-1.4l-4.4-3.7l-4.3,1l-4.9,5l3.4,4.2l2.1-0.5l2,1.1l-1.3,1l0.9,2.8l3.1,0.2l5.7-1.3l0.6,1.4l-7.6,2l-4.4-2.2l-1.4-3.2l-5.8,0.8
	l-0.9,4.4L157,186l2.5,1.6l-0.6,1.2l-1.8-0.6l-1.8,1l-0.1,1.5l2,0.5l4.1-0.7l5.1-0.8l0.7,1.2l-3.5,2.1l3.1,1.5l-1.8,0.7l-3.9,1.2
	l-3-0.5l0.2,2.7l7.1,2.8l-8.6-0.1l0.2,1.7l1.9,1.2l0.1,2l-1.8-0.5l0.3-1.4l-1.1-0.5l-1.1,0.9l-2.9-3.7l-3.7,1.1l-4.2,0.1l-4.8,1.6
	l-2.5,1.4l-1.4,2l2.2,3.6l2.1,0.7l2.6-1.1l2.5,0.5l2,1.1l2.8,0.1l0.7,1.3l2.7-1.1l0.2,0.9l5.5,0.2l3.8-2.7l1.8,0.2l-4.6,3.6
	l-3.3,1.2l0.1,1.3h-1.6l-0.9-1.6l-5.2,0.6l-0.2,2.5l5.8,8.4l6.8,1.8l1.2,1.5l3.9,1.6l0.8,1.6l8-5.7l4.5-6.8l8.1-6l4-4.1l3-0.5
	l7.2-11.8l1.8-0.5v1.3l-8.1,12.8l2.8,0.7l1.3,0.8l-4.4,0.7l-1.4,1.9l-1.4-0.8l-2.9,2.4l1.5,1.2l-1.9,1.9l-3.8,4.6l0.8,1.1l-1.2,0.8
	l-1.2-0.2l-0.7,1.4l1.6,0.8l2.2,1.9l-2,1.2l-2.1-1.8l-1.5,1.1l-1.5,3.3l0.9,0.9l1.9-1.8l1.2,1.8l-0.5,1.8l2.4,0.2l1.2-0.9l3.9,1.5
	l1.8-0.2l1.4,1.5l2-0.6l2.7-4.6l1.3-0.6l2.3-3l1.2-2.6l0.8-0.3l-2,3.8l-2.9,4.8l-2.6,3.2l-2.3,1h-1.8l-1.3-1l-2.5-1l-1.3,0.3
	l-2.8-0.2l-4.2,0.3l-1.7,1.8v2.2l-2.4,1.8l-1.5,4l3,1.3l-2.2,0.8l-2.3-0.8l-1.7,3.5l-0.2,2.7l-0.7,3.8l2.8-0.8l2.5-0.5l1,0.8
	l-4.8,2.2l1.2,2l-1.5,2.2l-3.8,6.8l1.3,0.2l1.7-2.5l3.3-3l0.8,0.7l-4,7.3l0.3,2.5l-2.3,0.8l-2.5,5.3l-5.5,7.8l1.5,1.7l1.7-4.3
	l2.2-1.3l1.5-3.2l2.7-1.2l-0.5,2l-5,6.2l-2.5,5.5l0.5,2.2l6.5-5.3l-3.3,5.7l-1.5,2.5L164,309l2.8,2.2l0.5,2.5l6.2-2.7l-2.2,2.8
	l-3.3,1.8l-1.2,3.8l-4,2.8l1,3l-2.5,7.7l-1.5,1.3l0.2,4.8l-1.3,11.2l-1.5,0.3l-3.2,3.7l-0.3,5.8l-0.5,2.7l2.5,2l3-0.5l5.2-0.8
	l3.8-1.3l2.7-3.5v-4.5l-2.7-2.7l1.3-1.2l0.8-4.3l2-1.2l0.8-5l1.7-5.3l1.7,0.5l-0.8-7l1.5-4.7l3.5-6.8l3.8-2.3l1.7-1.2l-3.5-9
	l-1.7-0.7l0.3-2.5l-1.2-6.8l-1.3-3.5l1-5.8l1.8,3.3l3.7-1.8l0.3-3l5.5-4.7l6-6.3l2.5-0.8l6-9.5l0.7,2.2l6.2-3.2l-8.2,6.2l-1.7,4
	l-6.2,3.8l-4.7,5.8l-3.3,5.5l-2.7,3.5l0.2,3.8l-0.8,5l1.8,3.8l0.3,2.3l1.7,0.7l2.5,1.8l1.5,1.3l0.5-2.3l-2.3-5.3l3-5l0.5-3.3
	l1.2,4.5l3.7,2.8l1.8,0.3l-1.7-11l3.2,5.8l0.7,8.7l3.5,0.8l3.7-7.8l1.5-2.8l-2.8-3.3l3.5,0.8l-0.3-7.2l1.8-3.8l-1.7-2.5l0.2-6l2,5.7
	l1.3,0.8l3.7-7.2l3.7-3.5l-0.2,1.8l-6.3,9.3l-2.7,5.3l2.7,7.8l3.3-0.7l-0.5-2.5l-2.8-3.8l0.2-2.3l3.3,4.5l1.7,2.2l2.7,1.8l0.3,2.8
	l2,3l2.7-0.2l1.1-1.4v1.4l-0.5,0.2l-0.4,0.6l0.1,0.8l-1.2-0.3L226,298l-1.4-0.7l-0.7-2l-1.3-0.5l-1.5-0.7l-2-1.3l-0.8,1.7l-0.2,0.6
	l-1.1-0.6l-3.6,1.9l-0.4,3.1l0.7,0.6l-1.8,1.8l0.4,2l-0.2,6.1l1.8,4.9l-0.1,1.8l-0.2,1.2l-0.6-0.1l-0.6-0.9l-0.3,0.5l0.8,0.9
	l-0.3,1.4l-0.7,0.2l-1.2,0.7l-0.1,2.8l2.4,1.5l2.7,4l-0.4,1.2l1.4-0.1l0.5,1l1.3-0.2l0.8,0.2l0.3,0.9l3.2,2l0.2,0.2l0.1,0.2l1.3,1.6
	l0.7,2.1l-0.1,2.4l-1.5-0.3l-0.2,0.4l1.3,0.6l2.1,2.6l0.4,2.8l-0.3,1.2l-0.2,0.7l-1.1,0.8l-0.5,1.8l-0.7,0.8l-3.2,1.2l-2.6,1.7
	l-1.1,1.7l-0.5,4.4l-4.5,3.6l0.3,4.6l-1.6,3.3l0.2,0.9l-0.6-0.2l0.2,2.1l-3.3,2.9l-2,3.7l-3.2,2.1l-1.5,5.8l-2.8,4.1l-0.6,2.8
	l1.2,3.1l0.5,2.6l0.8,0.5l1.4,4.6l-0.2,1.6l-1.2,0.8l-0.9-0.4l-0.3,0.5l-2.1-2.5l-0.5-3.9l1-0.4l-2.2-5.7L193,398l-1.2-0.2l-0.8,0.8
	l-1.2,2.5l0.5,1.2l-0.8,3.8l0.2,2.3l2.2,4.3v1.6l4.1,4.8l1.4,0.7l0.6,2l2,1l0.7,2.1l-0.4,1l1.1,0.7l-0.5,1.6l2.2,0.8l-0.7,1.2l1.1,2
	l-1.6,1l0.3,2.8l2.8,2.6l3.6,1.1l0.4-0.3l-1.6-0.2l-0.3-1.6l0.2-1.8l1-1.3l-2.4-2.2l-0.6-4.6l-2.4-6.8l1.9-3.2l5.1-2.3l1.2,0.4h2.2
	l0.9,2.5l4.6,1.1l2.2,2.7l4.5,2.7l1.7,4.3l1.7,0.6v1l1.8,1.4l7.5,4l2-1.4l-0.1-1l0.5,0.5l0.6-1.3l-0.1-1l-1-0.6l1-4.9l-1-0.6
	l0.7-0.5l-0.6-1.7l1.5,0.3l0.3-0.9V421l-0.8-1.2l-0.5-1l-0.1-1.6l-1-1.3l-0.5-1.2l0.6-0.6l3.2,2.9l4.1,1.9l2.8,0.8l0.7,1.7l1.8,0.6
	l0.1,1.8l1.2,1.3l1.3,0.5l1.1-1.3l-0.2,1.1l0.8,0.1l0.1,1l0.9,0.4l0.4-1l-1-0.4l1-0.3v-2.5l1.2,0.7l0.5,1.6l1.1,0.9l2.4,0.1l2.8-0.4
	l1.3-1.5l7.5-3.1l0.2-0.9l1.1-1.2l2.2-1.5l1.5-0.2l0.4,0.4h1.4l0.8-0.5l2.2,0.3l0.7,0.2l0.7,0.8l1.2-0.1l1.5-1.7l0.8-0.6l2.7-2.9
	l1.1-1l0.7-0.7l1.1-0.7l1.1-0.4l1.4-0.2l2.1-0.3l1-0.2l0.8-1.2l0.4-0.8l2-1.7l2.4,0.1l1.1-0.6l2.6,0.2h4.1l2.2,0.1l1.1,0.7l0.5-0.1
	l2-1.3l1.7,0.1l1-0.6l1.2-1.2l0.9-0.8l-0.4-1.2l1.6-2.9l-1.8-1.2l0.2-0.7l5.8,0.5l1.4-1.1l-0.2-1.1l1.6-1l1.1,0.1l0.7-1.8l2.2-1.5
	l0.7-1.5l0.9-0.4l0.1-1.3l2.6-0.3l3.3-2.8l1.8-0.6l0.8-1.7l0.4-1.5l1.1-2.1l2.2-0.2l0.1-2.3l1.1-0.2l-2.1-1.4l1.2-0.2l1.1-2.3
	l2.2-1.4l0.9-2.3l2.4-0.5l2-3.2l2.8-0.8h1.8l0.9,1.2l1.3-0.1l2.6-1.9l-0.6-0.7l1-0.9l-0.9-1.9l0.8-1.2l1.2,0.3l3.2-2.8l1.9,0.5
	l2.2-1.8l0.3-1.8l2.2-0.9l-2.9-0.7l-0.1-1.6l-1.7-2.2l0.3-1.4l-1-3.6l-2.9-2.7l-0.1-2.6l-1.7-1.8l0.5-0.9l-1,0.3l-0.7-0.7l0.7-1.2
	l1.3-0.5l4.3,0.7l-0.8-1.2l1.8-1.3v-1.3l3.2-3.2l-0.5-1.5l1.5-0.3l0.3-1.7l1.7-0.1l0.7-2.4l1.4-0.2l-0.1-3.3l3.2-2l-2.2-3.5
	l-0.2-1.5l-0.5-2.1l-0.5,0.6l-0.1-0.8l-0.8,0.2l-1.4-0.9l-0.8-3.7l-2.2,0.2l-3-1.9l-2.2,1l-4.3-0.7l-2.2-1.6l-1.6-1.3l-0.6-1.7
	l-1,0.2l-1.6-1.9h-1.2l-2.9-2l-0.3-0.2l-1.5,0.2l-0.6,0.9l-1.4-1.7l-0.3,1.4l-1.2,0.2l-0.8-1l1,0.2l0.2-1.1l0.5,0.8l-0.5-1l0.6-0.8
	l-1.9-1.1l-0.4-1.6l-2-1.3l-9.8-0.5l-1.6,2.4l-1.7,0.3l-1.8,1.5l-0.7,0.9l-0.3,1.4l-0.2,1.2l-0.1,1.2l-0.3,0.3l-3.1,0.3l-2.5,2.4
	H326l-0.2,0.4l-1.7,0.2l-2.4-1.1l-1.8-1.7l-0.3-0.3l-2-1.9l-1,1.2l-1.2-0.1v0.1l-0.5-0.8l-1.5,0.6l-0.2-0.1l-0.6-0.2l-1.2-0.7l-1-1
	l-0.8-0.1l-2.3-0.2l-2.3,1.2l-1.6-0.3l0.1-0.5l-0.8,0.3l-0.6-0.1l-4.9-1.4l-4.9-1.7l-2.3-1.4l-2-0.6h-1.3l-0.8-0.3l-0.3-0.1L285,287
	l-1-1.6l-2.2-1.3l-2-3.3l2.5,2.6l1.4,0.8l3.1,3.2l3.5,0.2l1.3,0.2h0.8l0.9,0.6l0.9,0.1l1,0.1l1.6-0.2l1,0.8l2.6,0.5l0.4,1.1l0.8,0.2
	l-0.4-0.3l0.7-0.2l1.6,0.8l1.3,1.2l0.2-1.8l-0.2-0.2h1.2l0.9-0.1l1.1-1.4l1,0.6l1.7-2.1l0.7,0.3V287l1-0.2l1-0.2l0.9,0.8l1.2-1.1
	l2.6,0.2l1.6-6l1.6-0.3l0.6-0.6l4.2-4.3l1.2-0.4l0.5-0.3l1.3-1.6l-1.1-0.6l1.1,0.2l1.5-1.4l1.8-0.8l3.1,0.8l1.1,1l-0.4,0.5h0.9
	l-0.2,0.7l1.8,0.4l1.2-0.7l0.3,0.7l1.9-1.9l4.2-1.5l4.1-3l1-1.6l1.7-0.7l1.1-1.7l-2.7-1.5l-1.8-2.8h-1.2l-0.6-0.8l-5.3-0.8L341,256
	l-0.8-2.5l-0.2-1.4l2.2-5.4l2.5-2.1l-5.5-0.5h-2.7l-2.3,0.1l-4.2,3.3l-3,0.5l-1.5,1.4l-10,5.1l-1.8,0.9l-3.7-0.3l1-0.5l-0.1-0.5
	l3-1.2l1.5,0.1l6.7-3.8l2-0.5l0.7-1.8l1.8-1.5l0.7-0.7h0.9l2-0.6l0.8-0.4l0.8-0.4h0.1l2.8-0.8l2.8,0.6l1.9-1.2l2.7-0.7l3.6,1.8
	l1.2-3.4l1.7-1.2l0.1,0.1l3.1-2.3l1.9-2.5l4.1-1.8v-1l1-0.6l0.2-1.2l2.3-3.1l-0.1-0.8l-1.2-0.2l-0.6-2.3l1.7-2.2l0.9,0.1l1.2-1.2
	l0.7-2.2l-1.2-0.2l0.2-0.2l1.8-5.4l1.4-2.1h1.5l1.1-1.4l2.5-1.6l1.6-2.8l0.8-0.2l0.1-1.8l0.8,0.2l1.8-2l1.2-2.3l-0.2-1.2l1.2-1.6
	l-0.2-4.3l0.6-0.2l-1.1-1.8l1.9-1.3l1-4.2l4.1-5.4l0.4-2l0.3-0.8h0.1l0.3-0.7l0.8-0.1l0.5-0.5l0.3-0.5l1-0.7l0.3-1.4v-1.2l-0.5-0.6
	l-0.1-0.2l-0.4-0.4l-0.8-0.9l-0.1-1l-0.6-0.3l-0.6-0.8l0.2-0.6l0.8-3.2l4.2-10.3l-0.2-1.5l0.4,1l4.6-6.1l2.1-1.7l1-1l-0.4-1.2
	l0.9-1.8l0.6,0.7l1.4-1.9l-0.2-0.8l2.5-3.5l0.1-0.8l-1.2-1l0.8-0.9l-0.5-1l1.2-0.6l-0.1,1l0.3-1l-1.8-1.2l-0.4-4.2l-1.3-1.2l0.1-4.9
	l-3.7-2.8l-0.2,0.4l-1.8-4.4l-1.3-0.6l-0.7,0.6l-2.4-0.6l-0.4-2l-2.4,0.8l-0.8-0.7l-3.6-0.4l-4.2,3.2l-1.2-0.9h-3.1l-1.9-1.8
	l-1.8,1.1l0.1,0.9l-1.2,0.8l-1-0.7l-2,0.8l-1.8-0.7l-1.2,0.6l-2.9-0.4l-1.3,2l-0.1-1.8h-1.9l-1.2-1.4l-0.6,0.6l-3.2-0.3l-1.7-1.1
	l-1,0.8l-1.8-1.1l-1.5,1.2l-1-1.3l-1.2,0.2l-0.9-0.8l-0.8,0.3l-1.2,0.4l-1.1-0.6l-0.1-0.9l-1.7,0.1l-2.7,0.8l-0.6,1.2l-5.1,2.4
	l-4.8-1.4l-0.4,0.4v-0.6l-3.9-1.3l-5.8-3.2l0.5,0.9l-1-1.1l0.2-0.8l-1.4,0.4l-2.3-0.5l-5.7,1.3l-1.2,0.8l-2.3-0.1l0.5,0.9l-0.5,1.8
	l-1.9,1.6h-5.6l2.2,1.8l0.3,1.2l-0.5,0.6l-1.8-0.8l-0.2-0.7l0.3-1.2l-1.4-0.9l-4.2,0.8l-0.4,0.3l1.9-0.4l-0.8,1.1l-2.4,1.2l1.2-1
	l-0.7-0.1l-1.8,1.5l-2.1,0.7l-1.8,1.8l2.9-1.9l-1.2,1.7l-4.1,2.1l-3.7,0.3l-4.3-2l2.9,1.7l-1,0.2l-2.3-1.8l-0.3,0.9l-2.4,0.2
	l-1.1,0.8l1.7,0.7l0.3,1.8l-3.7,2.6l-0.7,2.1l-2.1-0.3l-0.2,1.9l-1.8,1.7l-0.8,0.1l-1.7-1.4l-0.9,0.1l-3.1,1.4l-2.4-0.4l-2.7,0.5
	l-2.1-2l2.3,0.2l2.6,0.2l5.5-0.4l2.6-3.9l0.3-0.9l0.8-2.2l2.1-1.2l2.9,0.5l-1.2-1.8l0.7-1.9l6.1-6.5v-0.5l-2.2-0.5l-2.8,1.9
	l-3.1-0.4l-1.1-1l-4,0.6h-0.6l-0.2,0.2l-0.6,0.3l-1.1,1l-1.4,1.1l-0.4,0.5l-2,1.4l-2.5,1.9l-1.5,1.4l4.1-6l3.2-1.2l0.2-1.3l4.2-1.7
	l2.7,0.4l3.5-2.9l2.4-0.1l1.9,2.8l1.9,0.4l2-2.4l3.1-5.2l7.1-8.7l1.6-3.4l-2.8,0.8l-0.8,2.3l-2,1.5l-2.6-1l-3.5-1.2l-3.7,2l-4.5-1.5
	l-3.1,0.5l-2.2-2.4l-5,0.4l-2.8-3l3.2,1.9l5.1-0.7l6.6,2l3.1-0.1l0.6-4.9l1-1.2l-0.7-2.9l1.3-4.2l8.2-3.6l1.8-4.8l4.3-1.8l14-11
	l5.6-7.9l2-2.7l9.3-3.7l6.7-7.1l2.9-7.7l0.7-3.9l-4.4-0.3l-0.2-4.3l2.8-3.2l0.7-4.7l1.7-0.7l1.2-5l-7.6,0.7l-1.8-2.5L320.1,3l-4.8,1
	l-1.9-0.5l-1.9-2.8L311.5,0.7z M146.4,12l-0.9,0.8l0.6,1.1l-1.9,1.5l-1.8,0.4l-1.1,1.7l-8.6,6.3l-1.7-0.1l-1.7,3.3l-4.3,2.1
	l-1.8-1.1l-2.4,2.4l-2.6,0.7l-4.2,1.8l-1.2,1.9l3,0.7l-2.3,0.9l1.6,4.3l2,2.4l0.2,0.9l-1.2-0.5v1.4l1.5,0.1l1.5,1.2l-1.9,1.7l-1.3-2
	l-3.8-1.9l-2.2,0.8l-0.9,0.4l0.3,1.6l-1.1,1.3l-0.2-2.7l-2.3-0.1l-1.2-1.8l2.1-0.2l0.4-1.4l-1.5-0.2l-0.8-1.8l-1.1,1.3l-2.4-1.7
	l-0.3-1.2L99,41.6l-0.2,2l0.9,0.8l1,0.2l-1.3,2L98.9,45l-1.8-0.6L95.9,45l0.7,2.7l-1.7,2l-1.6,1.5l1.9,5.5l1.4,1.5l2.4-1.3l0.7,0.8
	l-2,1.5l-0.6,1.7l1.6,0.7l-0.8,1l-1,1.4L96,63.4l-0.9,1.8l-1.3,0.6l0.6,0.8l0.8-0.8l0.4,3.1l1.2-0.3l1.9,2.2h2.6l3.2,1.4l2.5,1.6
	l1.1,1l0.1,2.1l-1.3-0.1l-2.8-1l-1.6,0.9l-0.3,1.3l1.4,1.3l-0.4,0.5h-0.9l-1.8,0.5l-0.8-0.5L99,81.6l-1.8,1.4l-2.1,1.1l-0.8-0.9
	l-1.2-1l-1.6,0.3l0.6,2.3l2,1.2l2.2,3.7l3.5,5.3l2-1.5l2.6-2.3l1.4-1.9l0.6-1.3l1.2-0.9l0.7-1.2l1,0.6l1.5,0.7l0.2-3l2,0.9l1.5,0.2
	l-0.1-1.7l-0.9-1.2l-0.8-1.8l-1.7-0.7l0.6-1.4l-0.4-1.4h1.8l2.4,1.9l3.4,0.2l0.2-1.8l-2.4-1.9l2.1-0.8l-3.1-7.4l4.9,8.2l2.3,0.2
	l1.5,0.2l1.7-0.1l0.8-1.2l1.3,0.2l1.7-1.3l0.9,0.2l0.5-2.2l1.2-0.4l0.1-2.6l-7.6-2.1l8.5-0.9l2.8,1.8l1.4-1.7l0.6-2.8l-4.7-0.9
	l3.7-0.6l0.8-1.8l-0.5-2.1l-1.4-0.7l-1.8,0.7l-1.8-0.8l-1.1,0.7l-5.2-0.7l6.5-1.3l1.7-2l2-0.8l1.8,0.5l0.2-1.6l-1.2-0.5l1-0.5
	l-0.6-3.1l1.4-1l1.3,0.2l1.3-1.2h1.8l2,2.6l2.1-0.4l1-1.6l2.2-1.7l1.9-4.2l-1.4-1l-1.7,1.7l-2.2,2.4l-1.4,0.2l-1.6,1.2l-1.3-0.5
	l-1.8-1.5l-1.4,0.9l-1.4-0.8l1-1.3l2.6-0.6l0.2-2.8l1.6-0.1l1.3-2.5l1.7,0.1l2.8-4.5l2.1-0.3l-1.8-1.7l-0.9-1.6l1.5-4l1.3-0.9
	l-0.2-1.8l-0.7-1.7l0.3-2.2l-1.5-1.4l-0.5-2.2L146.4,12z M108.9,37.6l0.8,3.7l1.1,0.1l-1.3,0.6l0.5,1.2l2.3-0.3l2.4,1.1v-2.1L112,40
	l-0.7-2L108.9,37.6z M136.1,55.5l-2.3,0.9l2.5,0.4L136.1,55.5z M93,60.7l-2.5,1.2l1.1,1.7l1.6,0.2l0.5,0.9l1.3-1.3l-0.6-2.1L93,60.7
	z M192,67.5l-0.7,2l1.3,0.7l1-0.6l-1.2-0.5l0.4-1.1L192,67.5z M99.9,74.2L98,74.3l-1.6,2h-1.8l0.2,1.7l2.6-1.2l1.3,1.1l1.5-1.8
	L99.9,74.2z M116.8,80l-0.5,1.4l2.2,1.4l1.7-0.4l-0.9-1.7L116.8,80z M85.8,86.7L83,88l1.8,1.6l2.3-1.3L85.8,86.7z M89,92.4l-2.5,0.4
	l-1.8,3l2.1,0.4l2.2-1.3l0.9-1.6L89,92.4z M79.7,96.5L78,97.6v1.2l-1.3,0.7l-0.7,1.4l-0.8,2.1l-1.3-0.7l-2.2-2.6h-3l0.4,0.5
	l-0.9,2.5l-1.3,2.4l-1.6,0.2l2,2.5l1.4,1.6l2.8,0.3l3,5.2l-0.1,2.9l1.4-0.2L77,116l0.8,1.8l1.6,1.3l1.5,0.7l3,1.1l1.1-0.5l-1.7-2.6
	l-0.4-1.3l2.1,0.2l3.1,0.8l1.3-3v-1.9l-1.8-0.4l-7.7-0.1l6.5-0.9l2.8,0.7l1.2-0.6l0.9-2.8l-2.8,0.2l-0.2-1.6V106l-1.9-0.7l0.3-1.3
	l-1-1.2l1-1l1.4-1.3l0.7-1.6l-1.8-2l-1.7,0.8l-1.1,1.4l-1.7,0.7l1.2,1.3l-1.2,0.9l-1.7,0.4l-0.5-0.9l-1.6-0.5l0.1-1.2l0.8-1.8
	L79.7,96.5L79.7,96.5z M73.6,98.8L73,99.5l1.3,1l1.4-1.6L73.6,98.8z M135.5,99l-0.2,2.8l-1.5,1.7l-1.8,0.3l-1.3,2l1.4,3.4l0.2,2.4
	h1.7l-1.1,2.8l-1.3,0.7l1.2,2.3l-0.2,1.8l-1.2-0.9l-0.8,2l-1.6,1.3l0.1-2.2l-2.1,1.6l-4.4-5.6l-1.6-4.4l-3.2-2.2l-1.6,6.1l1.6,0.9
	l3.8,4.2l-0.2,1.5l-1.5-1.5l-2.8-0.1l0.8,4.8l2.2,3.2l-0.7,0.9l-1.3-1.9l-1,0.6l-1.5-2.3l-3.1-6.4l-2,1.2l0.9,5.1l-3.1-0.3l-0.6,3.5
	l2.5,0.8l0.5,2.8l-0.8,0.8l1.2,1.7l1.3,0.2l3.8,2.2l2.7,2.4l1.4-0.7l-0.2-5l2.3-1.5l0.7,3.1l1.9-2.8l0.7,2.6l0.7,4.1l3.3-1.1
	l0.7,2.2l-3.2,0.4l-1.9,1.4l-0.7,2.3l1,0.7l5.9,11.1l3.4-1.6l-1.7,4.2l6.4-0.8h2.2l0.2-2.2l3,0.6l0.4,6.2l1.4,0.8l3.2-5.3l0.2-4.8
	l2,3.1l0.6,3l4.9-0.1l-4,3.5l-2.3,4.6l-2.1,3.6l0.7,4.9l4.6-1.6l2.8-2.8l3.7-5.1l2.3-0.5l0.7-4.3l-0.2-2.1l2.2,0.8l5.5-3.4l1-3.5
	v-3.1l-3.2-0.2l-1.5-1.1l-7.2,3h-2.3l-1.2-2.4l-3.9-0.7l-1.4-2.1l-3.4,1.7l2-2.8l-0.6-2.1l-3.2-0.7l0.1-2.3l-1.8-3.8l1.3-1.9
	l-0.7-1.6l-3.8,0.8l0.3-2.1l2.9-1.2l0.9-10.5l0.8-6.9l-3-5.5l-2.2-0.5l-2.2-5.9l-2.1-1.3L135.5,99L135.5,99z M91.5,101l-0.8,0.3
	l0.2,0.9l-2.2-0.5l-1.1,1v0.9l0.2,1l1.4,0.3l1.4-0.6l-0.3,1.2l1.2,1.5l2.5-3.5l-0.8-0.8l-1,0.1L91.5,101z M156.8,113.7l-2.1,5.6
	l1.3,1.8l1.7-5.8L156.8,113.7z M85,117.9l0.2,1.1l0.3,0.8l-0.3,1.4l0.8,0.3l1.2-1.1l-0.8-0.8l0.7-0.7l-0.5-0.9L85,117.9z
	 M76.6,118.2l-2.4,0.6l-0.2,1.3l-1.8,0.3l-0.2,1.1l0.1,1.3l0.6,2.8l5.5,3.2l1.8,0.2l1.3-0.5l0.8-0.5l1.8-0.7l0.3-1.2l-0.8-1l-2-0.5
	l0.2,1.1l-2.1-1.1l0.8-1.4l1,0.2l1.7,0.2l0.6-0.7l0.8-0.5l-2.3-1.6l-1.4-0.4L79,120L76.6,118.2z M154.9,122.3l-2.4,1.5l0.7,2.5
	l-0.3,1l-1.8-0.5l-2,4.6l-0.1,7.4l1.4,2.6l3.9-2.9l-1.3-3l-0.4-5.1l3-6.2L154.9,122.3z M73.5,127l-0.1,1.2l-3.1,1.4l1.5,4.4l-0.1,5
	l-1.7,1.2l-0.7,4l-1.9,1.3l1.2,0.7l0.8,11.3l0.6,0.5l-0.2,1.4l1.2,1.5l3.1,0.1l1.2-0.7l4,1.8l0.3-1.1l0.9-1.3l-0.8-1l-1.1,0.5
	l0.1-1.3l-1.8-1l-3.1,0.4l-0.7-0.7l0.1-1.2l2.3-0.3l2,0.9l1.7-1.5l-0.2-1.9l-0.9-1.2l0.4-1.5l-0.5-0.8l-1.2-0.4l-0.2-1.1l1.7,0.2
	l1.6-2.5l-0.2-1.2l1.6-2l1.4-0.1l0.8-1.7l-0.2-0.8l-1.3,0.1l-0.4-2.3l-1.5-0.7l1.5-1l-1.9-1.1l1.6-0.3L78,132l1.8-0.3l-2.7-1.4
	l2.1-0.5l-1.8-0.5L73.5,127L73.5,127z M84.7,128.3l-1.8,0.3l-0.9,1.3l2.4-0.1L84.7,128.3z M153.4,142l-1.3,2.2l2.1,2.6h3.2l0.4-2.1
	l-2.3-2.3L153.4,142z M139.4,158.7l-2.6,1.5l2.6,2.4l0.8-1.6l1-0.6l0.5-0.9l-0.8-0.8L139.4,158.7z M77.4,162.8l-2.7,0.2l-0.1,2.9
	l1,1l0.8-1L77.4,162.8z M65.7,165.4l-0.1,3.6l-1.7,1.3l-2.8-0.2l1,2.7h-1l0.1,1.4l-1.8,0.3l-0.8,1.4l2.8,1.6l0.7-1.5l0.7,0.2
	l0.5,1.2l1.8,0.2l1.2-0.6l-0.8-0.8l1-0.4l0.5-1.2l0.8-0.2l-0.2-1.4l-1-1.4l1.9-0.1l-2.4-2.2l1.2-0.8l0.4-1.2l-1.1-0.7l-0.1-1.2
	L65.7,165.4L65.7,165.4z M70.1,165.4l-1.2,1.9l1.1,0.2l0.9-0.9L70.1,165.4z M120,167.8l-3.6,1l-0.1,1.9l1.7,0.4l2.4-1l2.6,1.8
	l1.2-1.3l-0.8-1.8L120,167.8z M72,170.3l-0.7,0.2l1.5,1.3l0.3-0.8L72,170.3z M133,170.4l-3,0.7l-4.2,3.2l0.2,2.8l3.5,2.8l2.3,3.7
	l3.2,0.2l1.9-3l1-4.5l-0.9-2.7L133,170.4z M69.2,172.3l-0.7,0.3l0.2,1.3l1,0.3l0.1-1.2L69.2,172.3z M58.1,176.9l-0.4,1.5l1.8,0.7
	l-0.3,0.8l-1-0.2l1,1.5l2.6-1l-1.6-0.4l0.6-0.7H63l-3.1-0.9l0.2-0.7L58.1,176.9z M61.2,182.3l-1.5,0.4l1,2.1l1.6-0.8L61.2,182.3z
	 M143.4,183.4l-2.3,0.7l0.8,1.5l-1.8,0.4l-1.1,2.9l1.8,2l2.7,0.7l1.3-4.8L143.4,183.4z M53.7,189.5l-1.8,0.6l-0.7,2.2l1.3,0.9
	l1.2-0.9l0.5-1.6L53.7,189.5z M137,193l-2.1,0.5h-0.8l0.6,1.6l1.8,1.5l1.8-1.6L137,193z M52.1,193.9l-0.9,0.4l1.2,0.7l1.6-0.3
	L52.1,193.9z M119.9,209.3l-4,2.8l-2.2,1.8l-2.5,2.5l-3.3,2.2l-3.7,4h2.5l2.3-1.7l2.3,0.7l3.3-1.7l2-3.5l1.3,0.3l3.5-5.2l0.7-1.8
	L119.9,209.3z M139.9,214.3l-4.3,2.3l1.3,4.7l-3.8-2.5l-4,0.7l2,3.2l-3.2,2.3l2.3,3.5l4.2-0.3l5,3.8l0.8,2.3l7.2-2.5l0.7,2.2
	l-3.5,2.8l-4.7,0.3l-1.8,4.3l-3,2.5l0.7,2.2l2.3-0.2l6-0.8l2.8-1.5l0.3,1.8l-3.5,2l-6.7,1.7l-5-0.8l0.5,2.7l-2.2-0.3l0.7-1l-1.8-1.5
	l-3.2-0.5l-1.5,2.5l1.2,1.8l1,3.7l3.7,1l1.3-2l6.2,0.3l1.2-1.2l3.2-0.5l1.7,1.2l3.8-3l3.7-0.7l3.3-2.7l1.8,0.7l-2.8,2.8l3.5,1.7
	l7.8-5.7l0.3-1.5l-1.7-0.3l-3.5,1l2.7-2.8l-0.2-1.3l2-0.2l-0.3,1.7l2.2,1.5l1.7-1.3l-0.2-2.3l0.7-0.8l-0.3-3l-2.8-2.3l-3.7-2.2
	l-4-2.5l-4.7-0.8l-2.7-1l-0.3-1.5l-1.5-5.3l-2.5-3.3l-1.5-2.3l-2.7-2L139.9,214.3z M103.1,223.3l-2,1.2l-3.2,0.2l-3.2,1.2l-4.5-0.7
	l-2.2,2.2l0.3,6l1.5-0.8l2,2.2l1.8-0.3l1.3-4.3l3.7,0.7l1.7-4.2l2,0.5l2.2-2.3L103.1,223.3z M182.9,227.1l-2.4,0.4l-2.8,4.4
	l-3.8,1.7l-1.6,4.1l5.6-3.6L182.9,227.1z M134.5,231.2l-1.4,0.6l-1.8-0.2l-1.6-0.1l-0.3,1.9l4.2,1.5l3.5,0.3l1.7,0.2l0.1-1.8l-2-0.4
	L134.5,231.2z M177.9,241.9l-1.6,1.4l-2.2,0.2l-1.3,3l1.5,1l4.1-5.3L177.9,241.9z M123.9,247.5l-2.7,0.3l-1.5,2.3l2,1.3L123.9,247.5
	z M124.2,252.5l-0.9,1.8l1,0.6l0.8-1.6L124.2,252.5z M170.2,252.7l-2.1,2.8l0.9,1.8l0.8,1.3l1.4-1.4l-0.8-1.5l0.9-0.2l0.4-2.4
	L170.2,252.7z M168.7,258.7l-1,1l-0.8,4.3l1.6,3l1-6l-0.6-0.8L168.7,258.7z M170.2,259l-0.5,0.8l0.6,0.8l0.4-0.9L170.2,259z
	 M170.1,263l-0.5,2.4l0.3,1l1.2-0.9l0.1-1.7L170.1,263z M164.7,263.2l-1.2,1.4l1,0.8l0.9,0.2L164.7,263.2z M164.6,266l-1.9,1.2
	l-1.2,1.9l1.6,0.9l2.6-0.4v-2.8L164.6,266L164.6,266z M164,271.3l-2,0.8l-4.2,3.1l-5.8,4.6l-3.6,2.9l-3.6,6.5l3.6,1.7l-1.8,0.8h-2.1
	l-2.5,1.2l-3.5,5.2l0.4,7l0.9,2.3l3.6,1.4l2.4,0.3l1.6-3.3l0.6-4.2l1.4-0.6l1.1-2.1h1.2l-0.4,0.9l1-1l0.5-2.6l1.4-2.8l0.3-3.2
	l1.2-0.4l2.8-4.4l6.4-10.3l-0.2-1.9L164,271.3L164,271.3z M136.6,271.5l-2.5,2.1l-0.9,0.9l-2.4,0.8l-1.1,3.1l-1.9,2.9l1.1,2.3l0.6,2
	l2-1.8l1-0.5l1.8-3.5l0.6-1.8l2.9-5.2L136.6,271.5z M136.6,293.1l-4.5,0.8l-5.4,5l-2.6,5.2l-1.1-0.5l0.9-5.1l-2,0.2l-2.1,2.1
	l-2.8-0.1l-1.1,1.6l-0.2,3.8l-1.6,1.8l1,1.2l0.1,2.9l-2.6,1.8l0.2,2.2l-1.9,1.8l2.6,2.8l3.8-3.1l4.4-6.8l0.6-2l5.6,0.5l-0.4,1.6
	l-4.4,3l-0.6,2.2l1.8,0.5l2.5,6.1l-2.5,1.7l-2.8,5.3l3.9,1.8l2.6-1.5l1.5-3.5l1.2-0.1l1.6,0.3l4.6-1.5l1.2,0.4l1.5-2.5l2.5-2l-0.8-4
	l-1.6-2.5l0.5-2.5l-2.1-2.2l-0.8-5.1l-0.9-11.7H136.6z M194.6,297.7l-2.4,2.2l3.1,5.8l2.2,1.1l0.4,7.2l2.6,0.5l2.4,5.2l1.8-0.7
	l-1.2-2.6l1.8-1.5l-1.4-7.9l-1.8-0.3l-1.8-2.2l0.2-2l-2.4-1.8L194.6,297.7z M195.1,310.5l-0.6,1.8l0.5,2.2l1.4-1.2L195.1,310.5z
	 M210.4,312.9l-2.2,3.7v1.5l1.9-1.2l0.3,1l1.2-2.1l-0.2-2.9L210.4,312.9L210.4,312.9z M160.3,316.8l-1.1,1.2l0.6,1.3l1.4-1.6
	L160.3,316.8z M189.1,319.8l-1.9,0.1l-0.6,0.7l0.7,1l-2-0.3l-0.9,1.8l-2.2,1.1l-2.4,6.5l2.8,5.5l0.6,2.1l-1.1,1.7l-0.3,2.9l1.7,1
	l0.9,3.8l3.5,2.8l3.1,0.8l4-0.9l1.5,0.5l1.8-1.4l0.5-1.3l-0.8-3l1-1.9l-3-2.2l0.8-1.3l2.2-1.2l-1.5-2.2l-3.1-1.5l2.1-2.4l-0.4-4.1
	l-1.2-3.8l-2.3-2.7l-3.3-2.2L189.1,319.8z M158.6,319.8l-1.9,3.4l0.8,2.8l2.8-4.5L158.6,319.8z"/>
<path id="northern-ireland" class="st0" d="M110.3,366.8l-0.6,0.3h-0.6l-0.1,0.4l-0.4,0.4h-0.2l-0.1,0.3l-0.4,0.2l-0.6,0.1v0.4
	l0.4,0.5l-0.2,0.4l-0.2,0.2h-0.8l-0.2,0.3l-0.5-0.4l-0.5,0.2l-0.4,0.2l-0.6,0.2l-0.1,0.4l-0.6,0.1l-0.1,0.2l-0.5-0.2l-0.2,0.2h-0.7
	l-0.2-0.2l-0.9-0.1l-0.2,0.3l-0.4,0.2L100,371l-0.2-0.4l-0.5-0.2l-0.1,0.6l0.4,0.2v0.4l-0.2,0.2l-0.1,0.2l-0.8-0.1l-0.8,0.1
	l-0.4,0.3h-0.6l-0.1,0.5l-0.3-0.3l-0.2,0.4l-0.8-0.1l0.2,1h-0.4l0.1,0.6l0.1,0.3l-1.3,0.2l-1.1,0.2l-0.7-0.5l-0.4,0.3l-0.7-0.2
	l-0.7,0.3l-1-0.1l-0.2,0.4l-2-0.1l-0.8-0.2l-0.3-0.2l-0.9-0.1l-0.2-0.3h-0.6l-0.6-0.2l-0.6-0.4l-0.4-0.4l-0.8-0.7l-0.2-0.1l-0.5-0.9
	l-0.6,0.1v1.1l0.5,0.4l-0.5,1.2l-0.3,0.8v0.9L80,377l-0.4,1.1l-0.6,1.2l-0.2,0.7l-0.6,0.4l-0.3,0.3l0.6,0.2l0.2,0.2l-1,0.1l-0.8,0.1
	l-0.5,1.1l-0.3,0.4l0.3,0.6l0.3,0.4l0.2,0.5l-0.3,0.3l-0.5,0.5l-0.5,0.6l-1,0.7v0.6l-0.4,0.2h-1l-0.2,0.4l-0.6-0.2l-0.4,0.4
	l-0.4-0.3l-0.5,0.1l-1.1,0.2l-0.5,0.1l-0.4-0.2l-0.5-0.1l-0.2-0.4l-0.1-0.7v-0.3h-0.7l-0.4-0.3l-0.4-0.1l-0.9,0.1l-0.8-0.2l-0.2,0.3
	h-0.6l-0.2-0.3l-0.7,0.1l-0.1,0.3l-0.2,0.9l-0.7,0.1h-0.7l0.2-0.6l0.2-0.8l0.2-0.4l-0.4,0.1v-0.3l-0.4-0.2h-0.7l-0.4,0.8l-0.1,0.7
	l-0.5,0.2v0.1l-0.5-0.2l-0.1-0.6l-0.4,0.2l-0.7,0.5l-0.7,0.1l-0.8-0.4l-0.7,0.4l-0.9,0.7l-0.9,1.2l-0.8,0.8l-0.2,0.8l-0.4,0.5
	l-0.6,0.8L53,392v0.4l-0.6,0.6l0.1,1.2l-0.3,0.5l0.2,1.2l0.5,1.7l-1.3,0.1h-1.2l-0.8,0.9l-0.2,0.8l0.2,1.5l-0.4,0.7l-0.4,1.7
	l0.8,1.2l-0.3,0.6l-0.9,1.2l-0.8,0.8v0.8l-0.8,1.3l-0.3,1.1l-0.7,0.6l-0.4,0.2l-0.3,0.5l-0.8,0.3l-0.7,0.1l0.1,0.5l-0.7,0.1
	l-0.6,1.1l0.2,0.7l-0.3,0.6l-0.2,0.8l0.2,0.6l-0.1,0.9l-0.2,0.8l0.5,0.3v0.6l-0.4,0.4l-0.7-0.5l-0.9,0.1l-0.4-0.4l0.1-0.4l-0.4,0.1
	l-0.3,0.1l-0.2,0.5l-0.4,0.1l-0.2-0.3l-0.3,0.1h-0.7l-0.3-0.3l-0.6-0.2l-0.1-0.4l-0.5,0.4l-0.5,0.2l-0.2,0.4h-0.5l-0.6,0.3v0.3
	l-0.5,0.2l-0.1,0.2l-0.4,0.2l-0.2,0.3h-0.3h-0.5l-0.7,0.1l-0.2,0.2h-0.5l-0.2,0.3l-0.5,0.2l-0.1,0.3l-0.4,0.3l-0.2,0.7l-0.3,0.1
	l-0.1,0.2l-0.4-0.2h-0.3l-0.2-0.2l-0.3-0.1l-0.3-0.1l-0.1-0.3v-0.5l-0.3-0.1l-0.4-0.2l-0.7-0.1l-0.3,0.1l-0.1-0.4l-0.2-0.2l-0.1-0.4
	l-0.2-0.2l-0.1-0.4l-0.3-0.3l-0.6-0.2l-0.4,0.1l-0.4,0.3l-0.4,0.3l-0.1,0.2l-0.4,0.2l-0.1,0.5l-0.4,0.3l-0.1,0.4l-0.4,0.3l-0.3,0.3
	l0.1,0.4l-0.2,0.2l-0.5-0.1l-0.4,0.2l-0.3-0.5l-0.3,0.2l-0.4-0.1l-0.4,0.2l-0.4,0.4l0.5,0.3v0.6l0.3-0.1l0.2,0.4l0.5-0.2l0.1,0.4
	l-0.4,0.2l-0.1,0.4l-0.4,0.2l-0.1,0.7l-0.2,0.4l0.5,0.2l-0.2,0.5l0.3,0.2l0.3,0.5l0.8-0.1l0.4,0.3l0.5-0.1l0.4,0.6l0.5,0.1l-0.2,0.7
	l0.4,0.5l-0.3,0.1l0.3,0.3l-0.1,0.4h0.4l0.2-0.3l0.8,0.2l0.5-0.3v-0.3l0.5-0.2l0.3,0.3l-0.1,0.4L26,430v0.2l0.6-0.2l0.3,0.2l0.4,0.4
	l0.3,0.7l0.1,0.4l0.4-0.3l0.5-0.5l-0.1,0.8l0.6,0.1l0.8-0.1l0.3-0.6l0.6-0.1l0.3-0.6l0.6-0.2l0.5,0.8l-0.6,0.2l0.1,0.4l0.5,0.2
	l0.2,0.5l-0.2,0.7h-1.1l-0.4,0.5h-0.8l-0.3,0.3h-0.6h-0.4v0.4l-0.6,0.2l0.1,0.5l-0.1,0.2l-0.7-0.1l-0.3,0.3l-0.7,0.2l-0.1,0.2
	l-0.2-0.1l-0.2-0.3l-0.3,0.4l-0.1,0.4l0.2,0.4l-0.4,0.3l-0.3,0.4h-0.7l-0.3,0.5l-0.6,0.3l0.2,0.4l-0.5,0.2l0.3,0.4l0.3,0.2l-0.2,0.3
	l-0.4,0.3l-0.4,0.1l-0.4,0.3l-0.5,0.2l-0.3-0.3l-0.3,0.2h-0.7l-0.6-0.2h-0.6l-0.5,0.1l-0.7-0.1l-0.6-0.3l-0.3,0.4l-0.4,0.1l-0.5-0.2
	l-0.5,0.1l-0.3-0.2l-0.4-0.4l0.1-0.3l-0.5-0.1l-0.2-0.4l-0.4,0.1l-0.6,0.3l-0.8-0.3l-0.3,0.1l-0.2,0.4l-0.2,0.8l-0.5,0.1l0.1,0.5
	l-0.6,0.5l-0.1,0.4l-0.6,0.4l-0.4,0.6l0.2,0.5l-0.4,0.4l0.3,0.6l-0.5,0.3v0.3l-0.8,0.1l-0.7,0.1l-0.5-0.3L7.4,445l-0.8,0.2L6.3,445
	l0.2,0.7l0.2,0.4H6.2l-0.4,0.1l-0.6,0.2l0.1,0.4l-1-0.3l-0.7,0.1l-0.8,0.1l-0.7-0.2l-0.5,0.5l-0.4,0.3l1,0.3v0.5l0.8,0.2l0.6,0.8
	L3,449.3l-0.5,0.2l-0.3,0.2l0.7,0.7l0.9,0.6v0.4l0.5,0.4l0.6,0.6l0.2,0.5l0.6,0.2l0.2,0.7l0.7,0.7l0.1,0.6l0.5,0.3l-0.1,0.4l0.4,0.5
	l0.3,0.6v0.8l0.6,0.3l-0.1,0.5h0.5l0.3,0.4l0.4-0.1l0.3,0.7l0.3-0.4l0.5,0.4l0.8-0.3l0.5,0.1l0.1,0.8l-0.2,0.4l0.3,0.3l0.6,0.3v0.8
	l0.5,0.2l0.3,0.7l0.4,0.2l-0.1,0.5l0.4,0.6l-0.1,0.4l0.5,0.5l0.7,0.4l0.3,0.2l0.3-0.1l0.3-0.3l0.2,0.2l0.3,0.4l-0.1,0.4l0.4,0.1
	l0.3-0.3l0.2-0.2l0.6-0.2l0.3,0.3l0.5,0.8h0.7l0.4-0.1l-0.2,0.5h-0.5l-0.1,0.5l-0.2,0.2v0.8l-0.1,0.7l0.5,0.7l0.5,0.5l-0.2,1.5
	l0.2,0.8l-0.2,1.4l0.2,0.3l-0.4,0.4l0.4,0.3l0.6,0.2L21,476l0.8,0.2l0.6,0.6L23,477l0.2-0.4l0.2-0.2h1l0.6-0.1l0.6,0.3l0.4-0.2
	l0.4-0.3l0.5,0.7l0.4,0.2l0.8,0.1l0.6,0.1l0.3,0.3l0.3-0.6l0.3-0.5l0.5,0.7l0.5-0.4l-0.1,1v0.2l0.7,0.4l-0.2,0.4l0.2,0.8l0.3,0.1
	l0.2-0.2l0.2-0.3l0.5,0.2l0.2,0.4l0.8,0.8l0.4,0.7h0.4l0.2,0.6v0.8l-0.2,0.7h0.4l0.5,0.4l0.2,0.4l0.4,0.2l0.7,0.3l0.2-0.2l0.6-0.1
	l0.2,0.4l-0.1,0.5l0.4,0.2l0.1,0.6h0.7l0.6,0.4l0.2-0.6l0.2,0.1l0.2,0.2l0.1-0.4l0.6-0.5l0.4,0.6l0.5,0.1l0.3,0.4l0.8,0.1l0.2,0.3
	l0.8,0.1l0.4-1l0.4-0.2v-0.7l0.5-0.3l0.3-0.1v-0.3l0.4-0.3l0.3-0.3h0.3l0.1,0.2l0.6-0.3l0.9,0.2l0.1,0.4l-0.5,0.6l-0.6,0.6l0.3,0.4
	l0.6-0.1l0.3-0.3l0.3,0.4l0.6-0.1h0.2l0.4-0.2l0.5-0.2l0.1,0.4l-0.3,0.3l-0.3,0.5l-0.7,0.4l0.2,1l0.4-0.5l0.2-0.1l0.2-0.4l0.3-0.3
	H51l0.1,0.5l0.7,0.5v0.5h0.8l0.7-0.7l0.3,0.8l0.2,0.6l0.8-0.6l-0.1-0.4h0.3l0.5,0.2l0.5-0.1l0.3-0.2l0.2-0.7l0.7-0.7l0.4-0.3
	l0.2-0.9l0.4-0.2l-0.1-0.5l0.3-0.4l-0.4-0.5l0.5-0.6l0.8-0.2l-0.7-0.4l-0.4-0.4l0.1-0.7l-0.2-0.8l0.4-0.3h0.7l0.4-0.1l-0.1-0.7
	l-0.7,0.1v-0.6l1.1-0.2v-0.6l0.7-0.4l0.2-0.1l0.3,0.5l0.6,0.1l0.4-0.3l0.1-0.8l0.7-0.4l0.1,0.7l0.5,0.1l0.4,0.3l0.5-0.2l0.7-0.4
	l0.3-0.8l-0.1-0.5l0.4-0.4l-0.6-0.3l-0.5-0.2l0.5-0.6l0.8-0.1v-0.4l-0.5-0.5L65,472l-0.3-0.4l-0.2-0.3l-0.5,0.1h-0.9l0.1-0.5
	l0.3-0.7v-0.4l-0.5-0.2l-0.6-0.4l-0.6-0.6h-0.5V468l0.7-0.5l0.2-0.6l0.9,0.1l0.1,0.3l-0.1-1l0.2-0.9l-0.2-0.4l-0.1-0.8l-0.3-0.3
	l0.7-0.1l0.6,0.3l1.1,0.1l0.2-0.6l0.5,0.1l0.1-0.5h0.4l0.5-0.5l0.7-0.6l0.2,0.3l0.3-0.5l0.1-0.5l-0.5-0.4l0.4-0.4l1.1-0.7l0.4-0.9
	l0.7-0.4l0.1-0.6l0.3-0.5l0.6-0.7l0.1-0.6l0.6-0.2l0.6-0.5l0.3-0.5l0.6,0.3l0.1,0.2l1.2,0.4l0.1,0.8l0.5,0.2l0.2-0.5l0.7,0.2
	l0.1,0.8h0.4l0.5,0.6l0.2,0.5l0.8,0.2l0.2,0.7l1,0.2l-0.5,0.5l0.4,0.5l0.3-0.2l0.2-0.1l0.5,0.6l0.1,0.6l-0.2,0.2l0.3,0.2l0.3,0.7
	l-0.5,0.5l0.6,0.3l0.3-0.3l0.6,0.5l0.4,0.2l0.2,0.8l0.4,0.6l0.1,0.3l0.1,0.5v1.3l0.5,0.1v1.2l0.3,0.8l-0.2,0.2L84,470l-0.4,0.1
	l-0.2,0.1l0.1,0.4l-0.1,0.2H83l-0.2-0.5l-0.3-0.1l-0.1,1.2l0.6,0.3l0.1,0.6h0.7l0.1,0.5l0.5-0.2h0.4l0.4,0.6l0.1,1.5l0.5,1.1v0.8
	l0.2,0.8l1,0.2v0.6l0.2,0.6l0.8,0.2l0.2,0.6l0.5,0.4l0.6-0.3l0.7,0.5v0.5l0.6,0.4l-0.1,0.5l0.2,0.4l0.3-0.7l0.7,0.5l0.2-0.7l0.3-0.3
	l-0.1-0.5l0.8-0.6h0.5l0.5,0.6l0.5,0.3l0.5-0.2l0.3,0.2l0.2,0.5l0.7,0.6l0.4,0.2l0.2,0.7l0.3,0.5l0.1,0.6l0.4,1l-0.2,0.9l-0.4,0.2
	l-0.2,0.7l0.3,0.4l-0.2,0.4h-0.4l-0.2,0.7h-0.6l-0.2,0.1l0.2,0.9l0.2,0.6l0.5,0.4l-0.2,0.6l0.2,0.4l-0.2,0.3l-0.6-0.1l-0.2-0.4
	l-0.2,0.8l0.5,0.5l-0.1,0.7l-0.4,0.4l-0.6,0.1l0.3,0.7l0.3,0.4l0.6,0.2l0.3,0.9l0.4,0.2l-0.1,0.5l0.6,0.4v0.5l0.5,0.3L98,497
	l0.5,0.5l0.2-0.6l0.8-0.2v-0.4l-0.3-0.1l0.1-0.5l0.4-0.2l0.3,0.3l0.8,0.3l0.1,0.2l0.9,0.2l0.2-0.3h0.3l0.2-0.4l0.6-0.4l0.7,0.2
	l0.3,0.4l0.8,0.1l-0.1-0.5l0.4-0.3h0.6l0.4-0.5l0.3-0.4l0.4,0.3l-0.5-0.7l0.2-0.3l0.6,0.2h0.6l-0.1,0.2h0.4l0.4,0.8v0.4l0.5,0.7
	l0.5-0.3l0.3,0.2l0.2-0.4l0.5,0.2l0.4-0.3l0.6,0.1l0.4,0.2l0.4,0.5l0.2-0.6l0.1-0.6l0.3-0.2l0.8,0.3l0.3-0.7l0.3-0.4l-0.1-0.3
	l-0.2-0.2l0.1-1.2l0.2-0.4l-0.3-0.4l0.3-0.4l-0.4-0.2V490l0.4-0.2l0.5,0.4l0.4-0.3l0.5,0.2l0.3,0.6l-0.1,0.7l0.1,0.7l0.5,0.2v0.3
	l0.8-0.2l0.2-0.3l0.1-0.4l0.1-0.7l0.4-0.4l0.6-0.5l0.4,0.3l0.5,0.3l0.2,0.4l0.8,0.3l0.6,0.4l0.5-0.3l0.9-0.1l0.8,0.4l0.3,0.3
	l0.4-0.5l0.2,0.4l0.7,0.3l-0.1,0.4l0.4,1l0.1,0.8h0.4l0.7,0.8h0.8l0.5,0.3v0.3l0.5-0.2l0.7-0.5l0.3,0.5l0.5-0.1l1.5,0.4l0.2,0.4
	l0.6,0.8l0.3,0.3h-0.6l-0.7-0.5l-0.4,0.3l-0.5,0.4l-0.3,0.5l1.2,0.1l0.5,0.8l0.5,0.2l0.6,0.3l0.4,0.5l0.6-0.7l0.6-0.2l0.2-0.4
	l0.4-0.2l0.8-0.2l0.3-0.8l0.7-0.7l1.2-0.8l0.5,0.2l0.5-0.4l0.7,0.2l0.2-1.1l0.8-0.5l0.2-0.7l0.7-0.4l0.8-0.3l0.2-0.5l0.4-0.1
	l0.4-0.3l0.4-0.7l0.4-0.3l0.1-1l0.4-0.4v-0.7l-0.2-0.2v-0.7l0.5-0.7V487l0.6-0.5v-0.9l0.3-0.3l0.2-1.2l-0.2-0.7l-0.2-0.7l-0.3-0.5
	l-0.1-0.5l-0.4-0.4v-1.1l0.3-0.4l0.8-0.7l0.3-0.3l0.7-0.5l0.8-0.5l0.2-0.6l0.5,0.2l0-0.4l0.2-0.7l-0.1-0.3L148,476l-0.2-0.1
	l-0.2,0.2H147v-0.3l0.6-0.3l0.1-0.5l0.3-0.4l0.2-0.3l0.3-0.7v-0.6l0.7-0.3v0.5l-0.4,0.3l0.2,0.9l0.2,0.6l-0.2,0.6l-0.9-0.1l0.2,0.8
	l0.2,0.4l0.2,0.3l0.4,0.2l0.2,0.1l0.6-0.2l0.7-0.4l0.2,0.2l0.9,0.3l0.6-0.4l0.4,0.2h0.4l0.3-0.4l0.6-0.3l0.7,0.2l0.6-0.2l0.1,0.3
	l0.7,0.1l0.5-0.2l0.4,0.3l0.2-0.3l0.4,0.3l0.4,0.2l0.5,0.5l-0.2,0.2l0.4,0.4l-0.2,0.2v0.3l0.5,0.2v0.5h0.3l0.4-0.5l0.4-0.1v-0.3
	l0.3-0.2v-0.4l0.2-0.1l-0.1-0.6l-0.1-0.6h0.5l0.2-0.1l0.2-0.3l0.5,0.1l0.1,0.7v0.3l0.3-0.1l0.5-0.6l0.1-0.8l-0.2-0.8l0.7,0.7
	l0.4-0.2l0.1-0.7l0.6-0.2l0.2-0.4l0.4-0.2V473l0.4-0.2l0.4-0.4l0.1-0.7l0.3-0.5v0.8l0.4,0.1l0.2-0.4l-0.3-0.2l-0.3-0.7l0.1-0.3
	l0.4-0.2l0.3-0.2l0.2-0.3l0.3,0.1l0.5,0.2l0.2-0.4l-0.3-0.2l-0.6-0.1l-0.2-0.3l0.1-0.9l-0.2-0.8v-0.6l-0.2-0.5l-0.2-0.2l-0.2-1.3
	l0.2-0.7l-0.3-1l-0.5,0.1l-0.2,0.3H165l-0.3-0.2l0.1-0.4l0.3-0.3l-0.1-0.4h-0.4h-0.4l-0.8-0.6v0.5l-0.5-0.2l0.2,0.4v0.3l-0.1,0.2
	l-0.4-0.2l-0.6,0.1l-0.2,0.2l-0.4-0.2l-0.5,0.3l0.2,0.1l-0.7,0.3l-0.2,0.2l-0.1,0.2l-0.4-0.1l0.1-1l-0.5-0.4l0.2-0.5l0.3-0.5
	l0.4-0.4l-0.2-0.5l0.7-0.1v-0.4l-0.1-0.1l-0.1-0.4l0.1-0.5h0.5l-0.2-1l-0.4-0.3l0.5-0.7l0.3-0.4l-0.3-0.6l0.2-0.2l0.3,0.1h0.8
	l-0.1-0.7l-0.2-1.4l-0.4-0.5l-0.5,0.1l-0.4,0.1l-0.4-0.6l0.5-0.8l-0.2-0.2l-0.5,0.5l-0.2-0.1l0.1-0.3l0.3-0.6l-0.2-0.2l-0.2-0.3h0.6
	l0.3-0.2l0.2-0.6l-0.1-0.3l1-1.2l-0.3-0.1l-0.8,0.5l-0.2-0.2l0.2-0.3l-0.2-0.6l0.5-0.2l0.2-0.2l-0.4-0.2h-0.3l-0.1,0.4l-0.7-0.1
	L160,447h-0.5l-0.3-0.3l-0.8,0.2l-0.3-1l-0.7-0.1l-0.4-0.4l-0.6-0.2l-0.1-0.1l0.6-0.5l0.7-0.2l0.4,0.2l-0.9-0.7l0.4-2.4l0.3,0.4
	l0.2-0.7l0.2-0.4l0.6-0.1l0.2,0.2l0.7,0.4l0.2,0.5l0.4,0.1l0.4,0.3l0.5,0.4l0.7,0.2l0.3,0.4l0.4-0.2l0.4,0.6l0.1,0.5l0.5,0.1
	l0.3,0.5l0.2,0.7h0.2l0.4,0.5l-0.1,0.7l-0.2,0.2h0.8V446l0.3-0.4l0.4,0.2l0.4,0.6l-0.1,0.5l0.3,0.6v0.8l0.2,0.7l0.4,0.8l-0.2,0.5
	h0.4v0.5l-0.2,0.3l0.7,0.5L167,452v1.1l-0.4,0.5l-0.8,0.4l0.8,0.1l0.2-0.2l0.5,0.4l-0.3,0.5L167,455l0.3,0.6l-0.2,0.8l-0.6-0.4
	l-0.5,0.7l-0.2,0.6l-0.4-0.1v0.5h-0.4v0.7l-0.3,0.2l-0.3,0.8l0.2,0.8l0.4,0.4v0.8l0.7-0.1l0.3,0.1l-0.2,0.4l0.5,0.4l0.2,0.4l0.3,0.7
	v0.8v0.3l0.2,0.4l0.6-0.3l0.5,0.7l-0.2,0.3l-0.1,0.6l-0.1,0.5l0.4,0.2l0.5-0.2l0.1-0.6l0.1,1.2l-0.1,0.3l0.5,0.4l0.3,0.2l0.3-0.8
	l-0.2-0.6l0.2-0.5l-0.1-0.4l0.2-0.4l0.1-0.2l0.8,0.1l0.1-0.8h-0.5l-0.4-0.2l0.2-0.4l0.2-0.8l0.3-0.7h0.4l0.4,0.3l0.2-0.4l0.2-0.5
	l-0.1-0.8l-0.1-0.5l0.1-1.2l-0.5-0.9l-0.4-0.3l-0.2-0.8l0.6-0.3l0.4-0.4l0.8,0.1l-0.2-0.5l0.3-0.2V455l0.4-0.2l0.3-0.4h0.3l-0.3-0.4
	l0.2-1l-0.3-0.5l-0.2-0.6l0.5-0.3l0.2-0.5l0.5-0.5l-0.6,0.3l-0.4-0.2l-0.3-0.1l-0.7-0.2l-0.5-0.5l-0.1-1.3l-0.3-0.7l-0.1-0.3v-1.1
	l-0.2-0.3l-0.4-0.6l-0.2-0.9l0.2-0.6l0.2-0.3l-0.2-0.3l0.4-0.2l-0.3-0.7l-0.3-0.8l-0.1-0.6H170l-0.3-0.3V440l-0.6-0.2l-0.2-0.5
	l-0.2,0.2l-0.3-0.5v-1.1l-0.4-0.1l0.1-0.6l-0.2-0.6l-0.2-0.2l0.1-0.7l0.2-0.7l0.1-0.8l-0.3-0.3h-0.4v-0.8l-0.5-0.4h-0.4l-1-1.3
	l-0.2-0.7l-0.6-0.4l-0.8,0.1l-0.4-0.3v0.5H163l-0.5-0.5l-0.7-0.2l-0.1,0.2l-0.1,0.8l-0.1,0.3l-0.6,0.1l-0.5,0.2l-0.2-0.7l-0.8,0.4
	l-0.2,0.3l-0.3-0.1l-0.1-0.3l-0.9,0.2h-0.2l-0.2-0.2h-0.5l-0.7-0.1l-0.2,0.2l-0.4-0.4l-0.7-0.2l-0.2-0.7l-0.6,0.4l-0.9,0.4l-0.6,0.5
	l-0.8,0.3l-1.1,0.1l-0.3,0.4l-0.8,0.4l-0.6,0.8l-0.8,0.4l-0.5,0.3l-0.2,0.5l-1.2-0.5l-0.6-0.2l-2-1l0.2-0.4l0.5-0.5l0.4-1.5l2.1-2
	l1.2-0.8l0.8-1.1h1.2l0.4-0.3l0.6-0.7l1.2-0.5l0.8,0.3l0.2-0.3l0.5-0.2h0.5l0.6-0.8l0.2-0.3l0.5-0.2l0.6-0.8l0.5-0.2l0.1-0.5
	l0.4-0.7l0.8-0.9v-0.4l-0.4-0.2l0.3-3.5l-0.2-0.6l-0.5-1.1l-0.5-1.1l-0.1-0.9l-0.8-0.7l-1-0.8l-1-0.7h-0.5v0.4l0.2,0.2l-0.5-0.1
	l-0.6-0.8l-0.3,0.9l-0.4-0.2v0.7l0.3,0.4l1,0.8v0.4l0.8,0.5l0.2,0.7l0.2,0.2l0.6,0.5l0.5,0.9v0.6l0.4,0.4l0.2,0.6l-0.2,0.7l0.1,0.4
	l-0.2,0.6l-0.4-1.2l-0.7-1l-0.2-0.5l-0.4-0.8l0.4-0.2l-0.1-0.3l-0.7-0.4l-0.5,0.3l-0.5-0.3l-0.3,0.1l-0.3-0.2l-0.6-0.7h-0.5
	l-0.4-1.1l0.1-0.5l0.7-0.3l0.2-0.2v-0.8l-0.1-0.3l-0.5-0.4v-0.7l-0.2-0.5l-0.8-0.4l0.1-0.5l-0.7-0.1l-0.2-0.3l-0.1-0.6l-0.3-0.8
	l0.3-0.5l-0.3-0.3l-0.5,0.1l-0.2,0.2l-0.2-0.3l-0.5-0.2l-0.3-0.5h-0.5l0.1-0.9l-0.6-0.8l0.1-0.6l-0.3-0.8l0.1-0.5l-0.5-0.4l0.1-0.7
	l-0.7-0.4l-0.2-0.7l-0.2-0.8l-0.6-0.1l-0.3-0.5l-0.7-0.3l-0.3,0.3l-0.5-0.2l-0.2-0.7V397l-0.7-0.1v0.2l-0.9-0.2l-0.3-0.6l0.2-0.6
	l0.1-0.8l0.5-0.3l0.1-0.5l0.3-0.2V393l0.3-0.3l-0.2-0.8l0.2-0.3l0.4-1.1l0.1-0.8l-0.7-0.6l-0.7-0.4v0.1h-0.7l-0.9-0.1l-0.2,0.2
	l-1-0.2l-0.4,0.2l-0.1,0.1l-0.4,0.1l-0.5-0.4l-0.4-0.9l0.3-0.2l0.2-1.6l-0.3-0.2l0.3-0.4l0.2-0.8l0.3,0.1l0.1-0.6l0.3-0.2v-0.3h0.3
	l-0.1-1.9l-0.2-0.5l-0.6,0l0.2-0.4l0.2-0.4l0.2-0.4l0.4,0.1l0.2-0.2v-0.6l0.3-0.8l-0.2-0.7l-0.3-0.3v-0.8l-0.4-0.2l-0.3-0.3
	l-0.2,0.1l-0.3-0.5V375l-0.5-0.5v-0.2l-0.3-0.2l0.2-0.3l0.2-0.5l-0.3,0.1h-0.5l-0.3-0.3l-0.4-0.4l-0.4,0.1l-0.1-0.2l-0.3-0.3v-0.3
	l-0.4,0.2h-0.6l-0.1-0.4l-0.2-0.2l-0.5-0.2l-0.1-0.6l-0.4-0.4l-0.3-0.2l-0.8,0.1l-0.2,0.2l-0.5,0.2v0.4l-0.6,0.2v0.2l-0.6,0.2
	l-0.4-0.3l-0.2,0.5l-0.5-0.2l-0.4,0.3l-0.3,0.1h-0.4l-0.1,0.3l-0.3-0.1l-0.1,0.2h-0.3l-0.3-0.5l-0.3-0.6l-0.6,0.2l-0.2-0.5l-0.7-0.2
	l0.1-0.5l-0.5,0.1l-0.4-0.2l-0.3-0.3v-0.3l-0.3-0.1l-0.4-0.1l-0.3,0.3h-0.4l-0.2-0.3l-0.3-0.2l-0.4-0.4l-0.4-0.2l0.1-0.4l-0.3,0.4
	h-0.7l-0.2-0.5l-0.4,0.3l-0.4-0.5l-0.1-0.3l-0.5,0.6h-0.7l0.2,0.2l-0.2,0.3l-0.3,0.2l-0.3,0.2l-0.2,0.2h-0.8l-0.2-0.8l-0.7,0.2
	l-0.5-0.3l-0.8-0.1h-0.4l-0.3-0.4l-0.1-0.6l-0.4-0.3L110.3,366.8z M110,421l0.2,0.8l0.1,0.6l-0.6,0.7l0.4,0.6l-0.4,0.6l0.1,1
	l0.5,0.2l0.3,0.2l0.5,0.2l0.7-0.4l0.5,0.2l0.5,0.6l0.8-0.1l0.8,0.2l0.3-0.4l1.1,0.6l0.4-0.1l0.6-0.3l0.2-0.2l0.7,0.2l0.3-0.2
	l0.9-0.6l0.5-0.1l0.6-0.1l0.7,0.6l0.3-0.5l0.8,0.2l0.5-0.9l0.7,0.8l0.3-0.4l1.1,0.4l0.5,0.9l-0.9,1.2l-1.9,2.8l-1.4,1.7l-0.6,0.8
	l0.1,1.4l-0.5,1.1l-0.6,0.7l-0.3,0.8l0.7,0.1l0.6-0.1l0.5,0.4l0.4-0.3l0.6-0.2l0.5,0.1l-0.2,0.3l0.3,0.8v0.3l0.2,0.1l-0.1,0.1v0.3
	l-0.2,0.6l-0.1,0.8h-1l-0.1,0.6l-0.8,0.1l-0.3,0.2l0.7,0.6l-0.7-0.6l-0.3,0.2l0.2,0.9h-1.3l-0.9,0.7v0.3l0.2,0.6l0.6,0.2l-0.1,0.6
	l-0.4,0.5l-0.2,0.7l-0.5-0.5l-0.7-0.5l-0.1,0.7l0.2,0.4l0.5,0.3l-0.3,1.1l0.6,0.3l0.6-0.1l-0.2,0.6l-0.7,0.4l-0.5,0.8l-0.5-0.1h-0.4
	l-0.1,0.4h-0.4l-0.6-0.9l-0.2,1.3l-0.7-0.4l-0.3,0.1l-0.5,0.3l-0.3-0.4l0.2-0.7l-0.3-0.8l-0.4-1.1l-0.5-0.4l-0.6,0.6l-0.8,0.3
	l-0.5-0.5l-0.7-0.4l-0.7-0.4l-0.6,0.4l-0.4-0.6l-0.3,0.5l-0.7,0.6l-0.1,0.5l-0.8,0.2l-0.9-0.3h-0.6l-0.3-0.5l-0.2-0.8l-0.7-0.1
	l-0.6,0.4l-0.3-1l-0.2-0.7l-0.6,0.4l0.2-0.7l-0.8-0.2l0.2-0.7l0.6-0.3v-0.8v-0.9l0.7-0.1l0.7-0.3l0.4,0.1l0.2-0.4l0.1-0.4l0.5-0.5
	l0.5-0.8h0.4l1-0.1l0.4-0.3l-0.2-0.6l0.3-0.7l0.7-0.5l0.4-0.3l-0.2-1l0.4-1.1l-0.2-0.4l0.1-0.5l0.2-0.8v-0.5l-0.7-0.6l-0.4-1
	l0.1-0.3l-0.3-0.6l-0.1-1v-0.8l-0.3-0.8l-0.3-0.4l0.7-0.7l-0.5-0.7l0.6-0.2l0.1-0.4l0.3-0.2l-0.2-0.1l0.4-1.1l-0.2-0.7l1-0.8
	l0.5-0.7l0.4,0.1l0.5,0.3L110,421L110,421z M23.5,440.8l0.3,0.5l1.6,0.5l-1.7,0.4l-1.9,0.8l-0.5,0.4h-1.3l-0.3,0.2l0.5,0.4l1.2,0.2
	l1,0.1l0.5-0.4l0.9-0.2l0.4-0.3l0.3,0.1l0.8-0.1l0.9-0.8l0.7,0.3l0.7-1.1l0.7,0.8h0.7l-0.6,0.8l-0.3,0.8l-0.8,0.4l0.8,1.1l0.7,0.1
	l0.4-0.2l1,0.5l0.1,0.6l-0.3,0.7l-1,0.2l-0.2,0.4l-0.6,0.1l0.3,0.7l0.2,0.6l0.5,1l0.4,1H30l0.5,0.4l0.3,0.6l1.2-0.1l0.1,0.7
	l-0.3,0.4l-0.2,0.4l0.2,0.4l0.5,0.8l0.9,0.2l0.1,0.6l0.4,0.2l-0.2,1l0.7,0.9l-0.4,0.8l0.1,1l-0.6,1.2l-0.3-1l0.1-1.4l-0.5-1.3
	l-0.5-0.9l-0.5-1.1l-0.6-1l-0.6,0.8l-2.2-2.1l-0.2-0.7l-0.1-0.8l-1.2-0.2l-1.2-0.8h-0.6l-0.2-0.8l-0.8-0.4l-0.4-0.7l-2.2-0.9l-1,0.2
	l-1.4-0.6l-0.8,0.5l-1.8-0.4l-0.9-0.1l-0.7,0.6l-1.5-0.4l-0.7,0.3h-0.6l0.7-1.3l0.7-0.2v0.4l0.6,0.6l0.4-0.2l0.8-0.6l0.4-1.2h-1.1
	l0.7-1.1l1.1,0.5l0.2,0.2l0.6-0.9l0.4,0.4l0.8,0.1l0.8-0.8l0.3-0.5h0.7l0.8-0.7l1.4-1h0.6L23.5,440.8L23.5,440.8z"/>
<path id="wales" class="st0" d="M231.5,572.3l-1.6,0.7v1.1l-1.8-1.1l-1,1.2l-1,0.2l-0.2-0.8l-1.3,1.2l-2.3-0.2l-0.7,0.8l1.2,3
	l-1.1,3.9l-1,0.6l1.4,1.6l-0.3,1.7l1.9-0.7l-0.6,0.8l-0.9-0.2l-1,1.4l-1.3-2l-0.9,0.3l-0.6-1.3l-0.3-0.6l-0.3,0.5l-1.2-0.7l-0.9,0.1
	l-1.2-0.5l-0.2,1.1l-1.2,0.7l1.4,1l-0.7,1l0.3,0.8l2.1-0.6l2.2,1.1l-0.6,1l1.1,1.5l-0.3,1l1,0.8l2.8-0.5l-1-1.6l1.1-0.8l-0.4,0.9
	l0.8,0.6l-0.4,0.5l2.1,2.1l-0.1,1l1.6,1.7l-0.5,2.1l1,0.1l0.1,1l1.3-0.5l1.4,3l3.9-3.5l0.8-0.7l-0.8,2.8l-2.2,0.5l0.8,2.2l-0.6,1
	l1.2-1l4.6,2.1l-1.6-0.9l1-2l1,1l1.2-0.2l4-3.4l1.8-0.7l1.2-3.2l2.1-1l0.8-0.9l4-2.1l2-3.9l2.1-2.1l-5.2-1.1l-1.7,1.5l-4,1.2
	l-0.6-0.7l0.7-1.7l-0.9-0.6l-0.3-2.1l-0.6-0.2l0.3-1.9l-2.2-0.4l-0.8-1.2l-1.2,0.7l1.8-2.8l-1.1-2.9l-0.4,0.6l-2.2-0.8l-0.6,0.6
	l-0.2-0.7l-1.2,0.6l-0.7-1.1l-1.8-0.3l-0.5,0.6l-0.1-0.7L231.5,572.3z M304.3,582.4l-3.5,0.3l-7.8,2.4l-1.9,1.6l-6.6,2.3l-6.4-0.5
	l-1.6-0.8l-0.5-1.5l-1.7-0.6l-0.6-1l-2.8,0.5l-0.9-1.7l-3-0.2l2.2,2.3l1.3,4.2l-1.2-1.6l-2.8,0.7l-2.5,1.8l-5.4,2l-0.1,0.5l-5.5,2.2
	l-0.3-1.2l-1,0.4l-0.4-0.5l-0.1,0.6l-0.5-0.6l-5.2,2.8l-0.8,2.3l-0.2,0.7l-2.2,1.3l-2.3,2.9l-2.2,1.7l-0.2,2.2l0.5-0.1l-1,1.6
	l-0.1-0.7l-0.1-0.1l-0.7-1.6l1-0.8l-1.1-0.2l-0.7,1l0.4,6l-1.2,2.8l-3.8,3.7l-1.8-0.2l-2.4,3.5l-3.2,2.8l-2.9,0.1l-0.2-1.1l-0.2,1
	l-3.2,1.7l-1,1.8l-1.2-0.1l-1.3,3l-1.4,0.4l-0.5,1.7l-2,0.6l0.2,1.8l-3.2,4.2l2.3,1.8l0.8-2.2l1.8,0.4l0.2,0.7l1.9-1.3l1.1,0.8
	l2.9-2.7l4.2,2.8l-0.5,1.5l1,1l0.9-1.6l1.9-0.2l0.1-1.5l-0.8-0.3l0.2-1.6l-0.6,0.1l0.9-1.6l1.5-0.8l-0.3-1.1l1.3-1.5l4.1-1.1
	l-1.2-0.2l0.6-0.2v0.2l0.2-0.3l0.8-0.9l4.2,0.5l0.8-1.8l3.5-0.2l3-0.8l4.3,1.5l1.4-1.1l0.1-0.5l1.3,0.1l0.4,1.3l2.6-1.4l-1,1
	l0.2,0.8l-0.4,0.7l-2.7,0.2l-0.9-0.2l0.3-0.4l-1.1,0.5l1.7,5l-0.7,2.6l0.8-0.5l0.6,0.6l-0.7-0.4l-1.4,1.3l0.4-0.8l-1.3,1.2l0.1,0.8
	l3.9,5.9l1.9,4.1l3.4-0.9l-2.9,2.4l0.2-1.2l-0.7,0.8v2.3l-2.5,2l-2.5,6.2l1.9,0.8l-1.7-0.4l3.8,7.5l7.1-2.1l1.2,0.3l-0.6,0.7
	l-0.3-0.5l-2,2.2l-2.1,0.9l-1.7-0.1l-0.1,0.8l-0.9-1.6v5.8l-2.2,4.4l-0.8,2.9l0.1,1.7l-3.6,8.2l-4.8,6.2l-3.9,2l-4.2,3.2l-1.8,0.3
	l-0.7-1l-1.1,0.3l-4.6,4.8l-1,0.2l-0.4-0.7l-0.4,1.4l-3.3,2.7l-1.8,0.1l-1.4-1.2l-1,0.7l-3.9-0.2l-3.1,0.8l-0.3,2.8l0.8,0.9
	l-0.9-0.8l-1.2,0.6v-0.1l1.2-0.5l-2.7-1.8l-3.4,5.5l-1.4,1.1l-2.1,0.2l-1.2,1.1l0.2,2l1.8,0.8l-3-0.6l-1.4,0.4l-2-1.8l-0.8,2.7
	l-3.5,0.8l0.1,0.7l-1.3-0.7l0.7-0.5l-0.9,0.1l0.7-1.1l0.9,0.2l-1.2-0.5l-0.2-1.1l-2,0.6l-3.6-1.3l0.2,0.6l-1.3,1.1l1.1,1.2l-1.6,1.1
	l1,1l-0.4,1.8l-1.2-0.2l-0.2,0.9l-2.7-0.2l-0.6,1.5l-2.8-0.4l-0.2,0.9l-1,0.4l0.1,0.7l-1.8,0.2l-1.6,1.6l-2-0.1l-1.8,1.2l0.7-0.1
	l0.5,1l-1.4,1.1l0.6,0.8l-0.9,1.2l0.2,0.7l2.3-0.5v-0.5l4.4-0.2l1,0.8l0.9-0.8l-0.4,0.7h1.1l-0.2,0.7h3.2l1,2.1v1.8l0.8,2l-0.5,3.9
	l-0.7,0.6l-2.8-0.5l-1.8,1.9l-1.2-0.3l-0.7,2.3l-2.9-0.6l1.7,1.8l-0.3,0.6l1.2-0.7l0.9,0.8l-0.2,0.6l1.1,0.3l-0.1,2.1l0.8,1l0.5-0.8
	h0.8v-1.5h0.5l-1.2-0.6l-0.3-0.9l0.7-0.9l0.5,1.2l2.2-0.4l0.6,0.8l0.7-0.7l0.1-0.7l1.2,1.9l1.3,0.1l0.2,0.8l0.6-0.2l-0.5-0.9
	l2.7,0.3l0.4-0.8l0.2,1.2l2,0.6l2.6-0.4l0.1-1.6l0.2,1.1l1.4,0.5l1.8-0.6l0.5-1.5v-0.9l-1.7-1.6l1-0.1l-1.1-1.8l1.1,0.2l-1-1.1
	l-1.6,0.7l-0.7-0.4l0.9-1.8l-0.4,2l1.2-0.8l1,0.2l0.8,0.6l3.1-2l-1.3,1.9l-1.2,0.2l0.5,0.8l-0.9,0.7l-0.2,1.5l1.8,0.9l-0.9,0.1
	l-0.1,1.4l3.6-0.5l-1.5,0.9l-0.5-0.4l1,0.9l-0.1,1.2l1.2,0.3l-1.1-0.1l0.3,0.6l-0.5-0.8l-0.5,0.6l0.3-0.8l-1.6-1.7l-3.2,1.9l1.9,0.7
	l-2,0.1l-0.1-1l-0.8-0.4l-0.6,0.9l-1.2-0.5l-3.2,1.2l-1.4-0.9l-1.6,0.1l-0.4,0.7l1,0.8l-0.6,0.5l-1.9-0.4l-0.5-0.6l0.5-0.6l-2.3-0.3
	l0.5,0.7l-1.2,0.4v1.2l0.7-0.3l3.2,1.4l0.9,2.5l-0.8,2.2l3.5,1.4l2.2-0.1l1.8,1.5l1.5,0.2l0.3-1.7l1.8,0.2l-0.5-0.8l0.4-1.1l2.6-1.1
	l0.1-0.9l3.2,0.3l2.1,1.2l0.3-0.8l1.4-0.1v-1.1l3.1,0.3l-0.2-0.8l1.5-1.4l-0.6-0.3l0.3-1.3l1.2-1.2l-1.2-1.5l1.5-1.7l3.2-0.6
	l1.3-0.4l2.2,0.5l1.3-0.8l7.7,1.2l1.9-1.2l-2.8-1.8l-0.2-2.2l1,1.1l3,1.5l1.9-1.9l0.8-1.2l3-1.6l-2.9,1.7l-0.9,3.6l0.7,1.8l2.7,0.3
	l0.4-0.3l-0.3,1.1l-1.2-0.2l-2.6-0.2l-0.2,0.6l4.2,5.8l2.8,0.9l1.4-0.6l-1.4-0.4h1.8l-0.2-0.7l0.6,0.5l3.2-0.5l3.3,3.2l0.8-0.8
	l3.4,0.1l0.7-3.1l0.5,2.4l-1,0.8l0.8,1l-0.8-0.6l-1.5,0.4l-0.9,0.8l0.4,0.3l-3.3,0.9l-0.4,1.1l-0.2-0.6l-1.8,0.6l0.2-0.6l-1.8-0.8
	l0.3,0.9l-1.1-0.3l0.6,0.8l-1.7-1l0.8-1.2l-0.8-0.8l-1.4,2.5l-3.8,1.7h0.7l1.1,3.1l-0.1,1.2l-1.2,0.7l2,0.2l2.6,2.1l2.3,0.8
	l-0.1-0.8l1-0.4l2.8,0.8l0.4-0.4l-1-1.1l0.3-0.7l3.3-1.4l0.4,1.1l2.5,0.9l2.1-1.3l0.6,0.8l1-0.5l2,0.4l0.5-0.2l-1.8-1.4l0.2-1.2
	l0.3-0.8l2.6-1.5h1.8l0.1,0.8l2.5-1.6l1,0.5l2.8-0.7l-1,1l2.5,3.4l0.9-0.2l-1.2,0.6l1-0.2l0.3,1.2l0.5,0.2l1.8,3.8l0.8,3.5l1,0.6
	l0.9,2.1l2.8,0.8l1.2-0.8l1.4,1.4l0.5,1.2l2.8,2.2l0.8,1.3l1.4,2.7l9.8,1.7l0.7,0.7l4.4,0.1l2.1-1.2l1.4,0.8l0.4-0.8l0.3,0.9
	l3.8-1.9l2.5,0.4l1.2-0.7l-0.1-1.5l0.3-2.8l-1.2-0.3h0.4h0.2l0.1-2l0.8,0.3l0.2,1.2l1.6-1.7l-0.3-0.7l1.8-2.2l2-1l0.7-0.2l5.3-3.5
	l0.3-1.3l0.1-0.1l1.3-0.7l-0.7,1.3l1.9,0.9l2.7-0.8l-0.8,0.8l1.2,0.3l5.7-2.3l4.2-2.6l2.3-0.4l1-0.1l1.1-2.2l1.9-0.8l0.6-1.2
	l-0.6-0.9l-0.2-1.6l-0.7-0.2l0.9-1.9l-1.3,0.1l0.2-0.6l1.8-0.5l-1.1-0.8l0.2-1.5l-0.9-0.7l1-0.5l-1.3-2.8l1-0.6l0.7-1.9l-1.2-1.7
	l0.8-2.8l-0.5-0.9l1.2-0.8l-0.1-1.3l0.8-0.4l-1.1-1.1l-1.8,0.2l-0.3-1.2l-1.1,0.6l-0.4-1l-1.3,1.3l-2.7-3.2l0.7-1.6l-2.2-1.1
	l-1.2-1.7l-1-0.1l-0.4-1.2l-1.4,0.3l1.2-0.8l-2.3-1.3l-5.1,2.9l-1.3,0.1l-0.3-2.5h-2.2l-1.1-3.3l-2.8-2.9l0,0l-2.1-4.3l0.9-1.9
	l-0.2-1.1l-2.4-3.2l0.2-2.7l1.2-0.2l0.1-1.2l-2.5-1.2l0.4-1.1l2.9-0.6l1.4-1.2l-0.8-0.8l-1,0.9l-1.5-1l1.9-2.2l-0.5-2l2-1.1v-2.5
	l1.9-0.2l-0.2-1.3l0.8-0.7l2.1-0.8l1.9,0.6l1.8-1.1l-4.2-1.2l0.9-4.6l2.3-0.8l0.8-2.2l-1.3-0.6l-4.5,1l-1.3-0.4l-3.3-3.2l-3-1.2
	l-1.6-2.4l-2.7-1.3l-1-2.3l0.3-1.2l0,0l2.3-2.5l1.2,0.2l4.6-2.6l5.5-0.2l-0.2-2.4l2.1,0.2l0.5-3.3l-1.3-2.5l-1.4,0.4l-1.6,1.8
	l-1.8,0.4l-0.5,0.7l0.9,0.7l-0.3,0.5l-3.1,0.8l-0.3-0.8l1.7-0.8l-1.8-4.8h1.5l1.9-1.4l-0.3-1.1l1.4-2.1l0.9-0.2l-1.5-1.2l2.1-0.7
	l0.5-2l0.4-1h-0.5v-1.8l1.6-1.7l0.1-1.9l1.3,0.4l1.5-0.7v1.2l1.2-0.1l-0.2-1.8l-0.6-0.4l-0.8,0.2l-0.7-0.3l0.3-0.8l-1.9-0.9l0.8-0.7
	l-0.4-1l-1.2,0.3l-0.2-0.7l-0.5,0.3l-0.7-0.7l-0.4,0.4l-0.3-0.6l-0.4,0.5l-0.9-0.8l0.2-2l-2.1,1.3l-2.8-1.4l0.5-1.2l-0.9-0.1h-0.1
	l0.1-1.3l1.2-2.5l-0.8-0.6l2.4-2.2l-1.7-1.2l1.2-0.7l-0.6-0.8l2-0.1l0.3-2.7l0.9-1.3l1.3,0.6l2.6-0.3l1.8-2.8l1.8-0.5l0.5-1.1
	l0.9,1.9l2.1,1.4l2.8-1.4l0.2,0.6l2.8,0.5l2.6,5.2l3-3.1l1.8-0.1l0.4-3.5l-0.8-1.4l0.5-1.5l-2.2-0.2l-0.4-1l-1.5-0.1l-0.9,0.7
	l-2.2-0.8l-0.5-2.2l-1.1-0.6l0.3-1.5l-0.9-0.9l0.8-0.9l-0.8-0.4l0.7-0.3l-1.3-1.5l0.4-0.8l-1.7-1.2l0.9-1.4l0.5-1.8l-1.5,1l-2.6-1.1
	l-1.4-1.2l-1.8-2.6l3.2-0.9l1.5-1.3l-0.1-1.4l-1.7-2.4l-5-4.2l-2.5-0.3l-2.3-0.3l1.4,1.2l1.2-0.2l-1,0.4l0.4,0.3l-0.9-0.3l-0.8-0.3
	l0.7,0.6l0.6,0.5l1.1,1.2l2.8,1.5l-2.9-1.2l-2.1-1.6l-2.9-2.1l0.2-0.6l-4.6-4l-3.6-2.2l-0.2-1.2l-0.4,0.7l-0.8-0.3l-1.9-1.7v-1.9
	L304.3,582.4z M267.5,776.7l-0.2-0.2l-1.2-0.2L267.5,776.7z M239.5,779.7L239.5,779.7l0.1,0.1L239.5,779.7z M208.6,637.4
	L208.6,637.4L208.6,637.4L208.6,637.4L208.6,637.4z M204.7,643.8l-0.6,2.4l1.6-2.2L204.7,643.8z M164.7,739.6l-1.2,0.1l0.4,0.8
	L163,741l0.7,1.1l0.7-0.1L164.7,739.6L164.7,739.6z M194.6,752.6L194.6,752.6L194.6,752.6L194.6,752.6z M194.2,753.6L194.2,753.6z
	 M166,754.1l-1,0.8l1.4,1.1l0.8-0.8l0.1,0.5l0.8-0.4L166,754.1z M205.7,767l0.3,1.1l1.4,0.2l0.6-0.8L205.7,767z"/>
<a>
	<path id="south-west" class="st1" d="M405.5,719l-1.4,0.7l-1.6,3l-0.4-0.8l-0.8,1.4l-1-0.7l-0.5,0.8l-1.4,0.2l0.8,0.8v1.1l1.9,1.1
		l0.6,1.4l-0.9,2.6l-1.5-0.6l-3.5-3.5l-1.2,1.6l-1.3-0.8l-2.2,0.2l-3.7,3.4l-0.8,0.1l-0.8-1.2l-1.7,0.4l-1.8-0.5l-2.1,1.7l-0.6-0.8
		l0.8-2.3l1.6-1.1l-1.2-0.9l-1.9-0.5l-0.6,0.3l-0.7,0.6l0.2,2.2l-0.7,0.3l1.6,2.5l-1.1-0.3l-0.3,1l-2.4-0.6L373,735l-1.3-0.2l-2,0.2
		l-0.8-1h-0.9v-3.2l-1.8-0.8l0.1-0.8l-2.9,1l-0.3,1.7l-1,0.2l-1.6-0.3l0.2-1.8l-1.9-0.2l-0.2-1l-0.9,0.1l-0.9,1.3l1.4,1.8l-1.6,1.5
		l0.2,1.9l-0.6,0.4l2.4,1l-0.1,2.6l1.2,1l0.5,2.4l-1.8,0.4l-1.5,1.3l-1.4-0.5l-1.6,2.6l-3.3-0.1l-0.2,1.3l-1.2-0.8l-1.7,1.9
		l-0.8-0.5l-0.9,1.8l-0.8,0.4l0.1,1.3l-1.2,0.8l0.5,1l-0.8,2.8l1.2,1.7l-0.7,1.9l-1,0.6l1.3,2.8l-1,0.5l0.9,0.7l-0.2,1.5l1.1,0.8
		l-1.8,0.5l-0.2,0.7l1.3-0.2l-0.9,1.9l0.7,0.2l0.2,1.6l0.6,0.9l-0.6,1.2l2.7,0.6l-2.4,3.4L344,781l-3.1,3.9l1.3,1.8l-2.1-1.2
		l-0.2,1.2l-2.8-0.3l-1.8,1l-5.5,5.8l-0.5,2.1l-2.2,1.8l-1.5,0.5l0.2-0.8l-3,1l1.2,0.6l0.1,0.9l-0.3,1.2l-1.9,0.8l0.8,0.8l-0.2,4.1
		l-0.6-1l-2.8-0.9l1.7,1l-0.8,5.9l1.3,2.3l0.2,2.2l0,0l-1.2,1.8l-0.8,1.8l-1.7,0.6l1.5-1.2l0.8-2.2l-0.7-0.1l-1.6,1.7l-1.7,0.2
		l-3.8-1.1l-3.3,1.2l-1.5-0.2l-5.2,2.3l-8.8-0.4l-2.7-2.8l-1.8-0.1l-1.8-1.8l-3.2-1l-2.4-0.1l-2.9,1.7l-0.7-0.8l-6.2-1.2l-3.3-0.6
		l-1.2-0.9l-1.8,1.6l-2.5-0.5l-2.9,1.2l-2.3-0.9l-2.2,1.3l-4.8,0.2l-0.7,1l-3.3-1.2l-0.7,0.7l-1.7-0.2l-3.9,1.5l-1.6-0.4l-0.8,1.2
		l-1.3,0.2l1.3,1.1l-0.4,2.9l-0.4,0.8l-2.7,0.1l1.6,1.1l-0.2,1.4l1.2,0.3l0.4,4.6l1.7,1.2l0.7-0.2v1.9l-1.3,1.6l0.5-2.3l-1.3,0.2
		l0.2-1l-0.7-0.4l-1.4,2.6l-1.4,0.3l-3.1,4.2l-2.7,0.9l-2.4-0.2l-3.4-2.7l-3.1-1l-3.8-0.2l-0.7,1.4v4.8l-1.4,2.8l0.3,1.2l-0.6,0.2
		l-1.1,2.4l0.6,7.3l0.7,0.8l-0.8,0.1l-0.4,5.1l-5,3.3l-0.2,0.9l-1.3,0.1l-0.2,2.5l-1.9,1.2v0.9l-3.2,1.2l-0.7,1.4l-0.5-0.6l-1.5,0.7
		l-0.2,1.7l0.5,0.2l-0.9,3.3l-1.8,2.6l-2.6,0.5l-1.2-0.8l-1.4,0.3l0.2,0.7l-1.3,0.7l-1.6-0.3l-0.7-1.2l-1.2,0.8l1.3,1.2l-1.2,1.2
		l0.2,2.2l-0.6-0.5l-1-0.8l0.1-1.4l-2.5,2.8l-3.7-0.9l-0.2,0.4l1.1,0.8l-0.5,2.6l0.6,0.7l-0.8-0.1l-1.1,1.2l0.8,0.4l-0.2,1.6
		l-0.6,3.8l-1,1.8l-0.8,0.1l0.8,0.2l-2.1,1l-1.1-1.2l-0.2,1.3l-1.7,0.1l1.2,0.4l-1.2,0.5l-0.6-0.5l-0.1,0.8l-0.8-0.4l0.2,1.8
		l-0.9-0.1l0.6,1.6l-0.7,3.2l-1.9,0.5l-1.5,2.2l-2.4,0.1l-0.1,2l-1.2,2H162l-1.6,0.8l-0.9,1.4l-0.9-0.2l-2.4,2.3l-2.6,0.1l-0.4-0.7
		l-1.2,0.3l-0.2,2l-2.8,3.1l-0.1-0.2l-2.2-0.8l-0.4-2.1l-0.7,0.4l-0.9-0.6l-2.8,0.2l-3.8,2.8l-0.6-0.6l-2.2,2.7h-3.1l-2.8,4.2
		l1.3,4.1l-2.1,2.2l0.3,1.2l1.2,0.5l0.5,1.8l0.8,0.4l1.8-1l0.8,0.5l1.3-1.2l2.9,0.1l1.1-1.2l0.6,0.3l1.7-3.1l-1.1-2l1.3-0.8l0.6-1.3
		l4.2,0.5l2.3,2.1l-0.1,0.9l1-0.3l-0.2-0.4l2.4,0.3l1.4,1.4l1.7-0.2l1.2,1.2l0.3-0.3l2.5,3.2L159,940l1.4,1.2l-0.4,0.4l0.7,0.9
		l-0.8,2.3l0.8,0.5l0.5,2.3l1.8,0.5l0.2,1.2l2.2-0.3v-1.8l1.8-2.8l2.8-0.2l1.4,0.6l0.8-1.2l-0.3-1.2l1.9-0.8l0.9-1.9l-0.7-1.7
		l-0.8-0.2l0.3-1.8l-2.6-0.4l-0.5-0.8l-1.1,0.5l-0.3-0.6l-0.8,0.2l0.2,1l-0.5-0.9l-1.8,0.7l-1.9-0.5l3.4-0.2l-0.7-0.7l0.5-1.4v1.8
		l1.3-0.2l0.5-1.3l0.5,0.2l-0.8,1.1l2-0.3l0.8,0.5l1.3-1l-1-2.2l2.1-1.6l1-0.4l0.8,0.5l1.3-2.2l0.4,1.8l0.6,1l2-1.3l0.8-3.7l1.2-1.8
		l1.7-0.4l1,1.2l4.1-4.1l3.2,0.7l0.8,1.3l0.4-1.2l1.2-0.8l-0.3-0.9l1.3-0.8l-1.2-0.9v-0.9l0.7-0.9l-0.2-1.2l1.2-1.1l0.8,0.2
		l-0.9-2.4l0.8-1.1l2.1-0.6v-0.1l1.4-0.2l0.1-0.9l0.7,0.1l0.9,1.1l-0.3,2l0.8,0.7l0.4-1h1l1.6-1.6l0.1,0.4l0.5,0.1l-1.1,0.4l0.3,0.6
		l1.8-0.4l0.6,0.5l1.4-0.9l2.8,1.1l2.6-0.7l0.3-0.8l1.7,0.6l1.7-1.6l-0.9-1.2l0.3-0.8l0.6,1.6l1-1.1l3.5-0.4l7.2,1.1l3.9,3v2.2
		l1-0.7l1.6,0.1l-0.8-1.7l2.2-1v-1.8l-2.7,1.2l0.8-1.3l-0.6-0.5l0.8-0.9l-0.2-1.1l-0.8-0.3l0.5-0.3l-2.2-0.4l0.5-0.2l1.5-1.5
		l-0.7-0.8l0.4-1.2h-0.9l1.7-1l0.1-1.1l0.9,1.3l1.1,1.2l0.4-0.5l0.6-0.9l-0.6,0.9l-0.4,0.6l0.2,0.2l-1.9-0.5l-0.9,2.7l0.8,0.8
		l0.8,1.7l-0.2,0.6l-0.1,0.5l1.2,0.4v0.5l1-0.7l1.3,0.3l0.2-0.8l1.1,0.9l1.2-2.3l1.2-0.3l-1.8,2.2l-0.2,0.9l0.8,0.3l-2.3-0.6
		l0.6,1.7l0.4,2.8l6,0.8l-2.9,0.6l1.6,1.5h2.1l0.5-0.9l1.5-0.5l2.2,0.4l1-0.8l-0.2,0.8l0.3,1l1.4-0.1l1.9,1.7l1,0.1l-0.1,0.8
		l1.6,1.5l-0.1,2h-0.9l3.4,2.8l2.2,0.8l0.7-0.6l-0.1-1.5l1.5-0.7l-0.6,1.6l2.2,0.8l1.1,1.4l2.9-2.1l1.7,0.5l1.2-0.4l-1.3-1.6
		l1.5-6.2l2.1-2.8l2.3-0.8l1.1-1.1l-0.6-1.4l1.9,1.5l1.8-1.2l-0.2-1.3l1-2.2l0.8-0.2l-0.5-0.8l1.5-1.2l-2.2-0.7l0.5,0.7l-0.4,0.4
		l-0.6-0.8l-2.4-0.5l-0.1-3.9l1.6-2.2l1.3,1l2.5-1l-2.4-2.1l0.5-3.8l1-2.3l-1-0.5l1,0.1l1.9-2.3l0.3-2l2.9-3.2l-1.4,1l-0.4-5
		l-1.2-1.8v-1.9h0.1l0.8,0.8l0.5-1l0.1,0.6l-0.1,0.7l2.2,4.8l-0.8,1.2l4.5,1.4l0.9-1.5l3.4-1.2l1.8-3.3l1.5-1.2l5-1.2h6.1l1.2-1.8
		l4.4,0.4l4.4-1.6l0.4-0.4l2.6-1.7l10.3,2.6l9.2,5.7l8.6,6.9l-7.5-6.3l3.6,1.6l0.2,0.9h0.9l-0.2,0.7l2.2,0.8l2.1,2.9v0l1.1,0.8
		l1.5-1.9l1.2,0.5l-1.3-0.8l0.7-0.7l-0.8-0.3l0.7-1.3l1.1-1.1l1.1,0.2l5,0.2l1,0.8l6.1,1l2.7-0.8l0.8,0.9l2-0.1l0.8,0.8l0.8-0.4
		l1.4,1.4l3.6,0.7l0.6,1.8l2-1.4l5.2-0.6l0.5-1.4l-0.8-0.2v-0.9l2.2-2.7l-1.8-0.4l0.5-3.1l-0.5-0.7l-1.7,1.7l-0.8-0.5l0.5-0.8
		l-1.2,1.1L390,876l-0.4-0.2l-0.5-0.5l-0.8,0.1l-0.3,0.4l0.1-0.8l-1.5,1.1l-0.4-0.4l2-1l-0.6-1.6l1,0.1l-0.6-0.7l-1.9,0.8l-0.8,1.5
		l-1.1-0.1l0.7-1.9l1-0.1l-1-0.2l0.6-0.9l1.5,0.2v-1.3l-0.4,0.4l-0.3-0.6l1.9-0.1l-1,1.2l3.7,1.2l-1.7-2v-0.8l1-0.5l0.8,2l-0.5,0.8
		l2.3-0.3l0.8,0.7l-0.3,0.5l1.3,0.7l-0.9,1.8l3.2-2.9l4-1.1l0.9-0.2l5.7,1l0.6-1.1l0.1-0.4l2-1.3l1.2-0.1l0.8-1.6l-4.3,0.4l0.3-1.8
		l-0.7-1.7l-2.6,1.6l-0.1-1.5l-1.2-1.5l0.2-0.5l-0.7-1.3l0.6-0.6v-1.8l0.9-0.7l-0.8-0.7l-0.4-2.4l-1.5,1l-1.4-0.3l-0.2-0.8l0.7-2.2
		l-0.3-0.3l0,0l0.4-0.8l1.2,0.2l0.6-0.9l0.4-2.6l-2.2-0.5l-2.2,1.6l-3.2-4.8l-2.4-1.8l-0.1-1.2l0.5,0.8l1.5-1.7l2.8-0.2l0.8-0.8v2.4
		l1.4-2.2l1.2-0.6l1.4,2.6l1-0.6l3.2,1.5l2.4,0.1l2.1,2.4l0.9,0.5l1,0.5l1.9-1.5l0.8,0.5l0.2-0.5l1.1-2.2l-1.1-0.5l-0.7-1.8l1.6-0.3
		l-0.6-0.5l0.4-0.3l0.8,0.2l-0.5-1l0.4-0.7l-2.3-1l-0.2-0.9l0.4-4l-0.6-1.6l0.8-2.8l-2.5-1.2l0.6-3.1l-0.2-0.4l-1.1-2.1l0.2-1.3
		l-1.8-1.4l0.3-1.2l3.8-0.3l1.8-3.9l2.1-0.3l2.2,1.2l0.7-0.4l0.4-1.3h-0.7l-0.2-2.2l1.4-0.7l0.2-1l-1-2.2l0.4-2.4l2,1l0.8-2l-1-1
		l0.3-1.4l-1.2-0.2l-2.9-2.6l0.2-1.6l-0.7,0.2l-0.6-0.8l0.4-0.8l2.6-0.2l0.2-2.5l-2.4-2.3l-1.7-2.9l-0.1-3.2l-1.2,0.8l-3.1-5.8
		l-0.5-0.5l-1.5,0.8l-1-1.5l0.1-0.1v-2.3l1.6-1.2l-0.4-0.7l0.9-1.4l-2.2-2l-0.5-2l1-1.8l1.7,0.9l0.9-0.4l-0.6-1.3l-1.9-1.5l-0.7-1.4
		l0.6-1.8l-1-3.3l-1.2-1.3l2.5-2.3l0.3-1.4l-0.6-1.9l0.7-1.7l-0.8-1.6l1.3-1.3l0.6-2.2l1.8-0.3l-0.8-2.5l2-1.7l-1.2-1.9l-1.6-0.2
		l-0.5-0.7l-0.2-2.6l-0.2-0.6l3.5-4l-0.4-1l-2.7,0.8l-2.1-0.9l0.4-1.3l-1.1-0.8l0.2-1.5l-0.8,0.7l-1.2-0.8l0.2-2.9l-0.7,0.9
		l-0.8-0.4L405.5,719z M389.2,875.3h0.1v-0.1l-0.1-0.1L389.2,875.3L389.2,875.3z M405.9,870.1l0.4,0.8l0.5-0.8l1,0.8v0.2l-0.2,0.6
		l-1.2-0.3L405.9,870.1z M391.7,873.7l-0.9,0.5l1.4,0.7l0.8-0.5L391.7,873.7z M388.4,874.1l0.2,1l0.4-0.3L388.4,874.1z M383.7,874.6
		l-0.6,0.9l0,0L383.7,874.6L383.7,874.6z M355,884.5l3.7,4.1l-0.7,5.1l2-2.4l1-1.5l-0.9-1.9l0.4-0.3l-2.6-0.2L355,884.5z"/>
</a>
<a>
	<path id="west-midlands" class="st1" d="M392.4,597.3l-1.7,1.4l-0.8,2.2l-1.2,0.5l-1.8-0.4l-0.8,1.8l-1.3,0.6l-2.3,0.2l-1.9-2
		l0.1,3.4l-1-0.3l-3.7,4.8l-2.3,2.8l-0.4-0.4l-1.8,1.5l-0.9,0.2l-1.4-0.3l-2.1,2.7l-2.3,0.8l-0.1,2.5l0.9,1.2l-0.8,0.8l0.3,1
		l-3.9,1.2l0.2,1.9l-3.1,1.1l-2.7-1.7l-0.6,2.9l-2-1.9l-1.7,1l-0.7-0.8l0.2-1.8l-0.8,0.1l-0.1-1l-0.9,0.2l-0.7-1.1l-2.8,1.2
		l-1.6-1.1l-1.8,1.2l-0.5,1.5l0.8,1.5l-0.4,3.4l-1.8,0.1l-3,3.1l-2.6-5.2l-2.8-0.4l-0.2-0.7l-2.8,1.4l-2.1-1.4l-0.9-1.9l-0.5,1.1
		l-1.8,0.5l-1.8,2.8l-2.6,0.3l-1.3-0.6l-0.9,1.3l-0.3,2.7l-2,0.1l0.6,0.9l-1.2,0.6l1.7,1.3l-2.4,2.1l0.8,0.6l-1.2,2.5l-0.1,1.3h0.1
		l0.9,0.1l-0.5,1.2l2.8,1.4l2.1-1.3l-0.2,2l0.9,0.8l0.4-0.5l0.3,0.6l0.4-0.5l0.7,0.8l0.5-0.3l0.2,0.7l1.2-0.4l0.4,1.1l-0.8,0.7
		l1.9,0.9l-0.3,0.8l0.7,0.3l0.8-0.2l0.6,0.4l0.2,1.8l-1.2,0.1v-1.2l-1.5,0.7l-1.3-0.5l-0.1,2l-1.6,1.7v1.8h0.5l-0.4,1l-0.5,2
		l-2.1,0.7l1.5,1.2l-0.9,0.2l-1.4,2.1l0.3,1.1l-1.9,1.4h-1.5l1.8,4.8l-1.7,0.8l0.3,0.8l3.1-0.8l0.3-0.5l-0.9-0.7l0.5-0.7l1.8-0.5
		l1.6-1.7l1.4-0.4l1.3,2.4l-0.5,3.4l-2.1-0.2l0.2,2.4l-5.5,0.2l-4.6,2.7l-1.2-0.2l-2.3,2.5l-0.2,1.2l1,2.3l2.7,1.3l1.6,2.4l3,1.2
		l3.3,3.2l1.3,0.4l4.4-1.1l1.3,0.6v0.1l-0.8,2.1l-2.3,0.8l-0.9,4.6l4.2,1.2l-1.8,1.1l-1.9-0.6l-2.1,0.8l-0.8,0.7l0.2,1.3l-1.9,0.2
		v2.5l-2,1.1l0.5,2.1l-1.9,2.2l1.5,1l1-0.9l0.8,0.8l-1.4,1.2l-2.9,0.6l-0.4,1.1l2.5,1.2l-0.1,1.2l-1.2,0.2l-0.2,2.7l2.3,3.1l0.3,1.1
		l-0.9,1.9l2.1,4.3l2.8,2.9l1.1,3.3h2.2l0.3,2.5l1.3-0.1l5.1-2.9l2.2,1.3l-1.2,0.8l1.4-0.3l0.4,1.2l1,0.1l1.3,1.7l2.2,1.1l-0.7,1.6
		l2.7,3.2l1.3-1.3l0.4,1l1.2-0.6l0.2,1.2l1.8-0.2l1.1,1.1l0.9-1.8l0.8,0.5l1.7-1.9l1.2,0.8l0.2-1.3l3.3,0.1l1.6-2.6l1.4,0.5l1.5-1.3
		l1.8-0.4l-0.5-2.4l-1.2-1l0.1-2.6l-2.4-1l0.6-0.4l-0.2-1.8l1.6-1.5l-1.4-1.8l0.9-1.3l0.9-0.1l0.2,1l1.9,0.2l-0.2,1.8l1.6,0.3l1-0.2
		l0.3-1.7l2.9-1l-0.1,0.8l1.8,0.8v3.2h0.9l0.8,1l2-0.2l1.3,0.2l2.1-3.2l2.4,0.6l0.3-1l1.1,0.3l-1.6-2.5l0.8-0.3l-0.2-2.2l0.7-0.6
		l0.6-0.3l1.9,0.5l1.2,0.9l-1.6,1.2l-0.8,2.3l0.6,0.8l2.1-1.7l1.8,0.5l1.7-0.4l0.8,1.2l0.8-0.1l3.7-3.4l2.2-0.2l1.3,0.8l1.2-1.6
		l3.5,3.5l1.5,0.6l1-2.7l-0.7-1.4l-1.9-1.1v-1.1l-0.8-0.7l1.4-0.2l0.5-0.8l1,0.8l0.8-1.4l0.4,0.8l1.6-3l1.4-0.7l1.2,1.9l0.8,0.4
		l0.7-0.9l-0.2,2.9l1.2,0.8l0.8-0.7l-0.2,1.5l1.1,0.8l-0.4,1.3l2.1,0.9l2.7-0.8l0.4,1l-3.5,4l0.2,0.6l3.7,3.5l1.4-1.7l-0.6-0.7
		l1.3,0.4l2-0.9l-0.5-1.2l1.1-0.5l0.9,0.5l0.3-0.6l1.7-6.8l-0.3-1.4l1.6-3.2l2.1,0.4l-0.5-1.7l1.9-0.6l2.7,2.6l1.9-0.8l-0.9-1.8
		l-1.5-0.2l1.8-1.9l1.2,0.1l1.2-3.7l1.1-2.4l2.2-0.2l1.8-0.8l-0.5-1.8l-0.9-0.7l-0.7-1.8l1.2,0.3l0.8-1.3l1.5-0.7l1.1-1.5l-0.5-2.2
		l-0.7-0.4l1.6-2.7l-4-1.4l0.2-0.7l2.7-1.8l3.1-0.8l0.2-0.5l-2.1-3.9l-2.4-4.2l-0.2-0.4l-4.4-5.8l-1.3-0.8l-6.2-3.6l-2.8-1.9l-4.2-2
		l-0.3-1.3l-2.2-1.5l0.4-2l-0.8-0.7l-0.3-1.6l1.6-0.8l0.3-1.2l-0.7-1.7l-2.5-2l0.2-0.8l-0.7-0.7l-0.4,0.4l-2.1-0.7l-1.3,0.4
		l-0.2-2.5l-3.3-1l1-1.4l-0.3-0.9l2.1-3.6l1.1,0.6l0.8-0.8l0.8,0.8l0.5-0.6l0.5,0.4l-0.2-0.8l1.7-1.3l-0.2-1l-1.2-0.7l1.6-1.8
		l-2.7-2.5l-4.2-1.1l-0.8,0.3l-0.1-0.6l-1.4,0.8l-1.3-0.9l-2.1-1.7l-0.7,0.4l-0.9-0.7l-0.6,0.6l-1.4-0.7l0.2-1.1l-1.7-2.6v-1.2
		l1.6-1.6l0.2-3.5l4.2-2.4l0.3-3.4l-1.4-1.5l-0.4-0.6l0.6-1l-0.7-0.4l-0.5-2.8l0.7-0.5v-1l-2.5-3.6l0.3-2.5l-3.8-4l-1.9-0.3
		l-3.5-1.7l-0.3-1.4L392.4,597.3z"/>
</a>
<a>
	<path id="north-west" class="st1" d="M346.8,382.5l-0.8,1.7l-1.9,0.7l-3.3,2.8l-2.6,0.3l-0.1,1.4l-0.9,0.4l-0.7,1.5l-2.2,1.5
		l-0.7,1.8h-1.2l-1.6,1l0.2,1.1l-1.4,1.1l-5.8-0.5l-0.2,0.6l1.7,1.2l-1.6,2.9l0.3,1.2l-0.8,0.8v0.9l-1.4,1.3l-1.7-0.1l0.6,0.6
		l-1.3,0.6l0.8,0.7l-0.7,0.1l0.3,0.5l-1.5,0.2l0.2,1l0.8,0.1l-0.9,0.3l3.6-0.3l-2.8,1.1l-2.3-0.6l-1.9-2l-2.9-0.4l-1,0.9L309,409
		l-1.8,2.4l0.2,0.8l2.2,1l1.3-0.8l0.3,1l-0.9,1.2l-1.5-0.2l0.3,1.9l-3.6-2.4l0,0v-0.4l-1.8,0.9l-2,2.4l-2.6,7.3l-0.2,4.9l-4.4,4.2
		h-0.2l-0.7,2.7l-3.4,4.5l-0.5-0.1l0.8,4.4L290,446l-2.8,8.2l-1.6,0.8l0.2,1.2l0.9,1.8l1.7,1l5.2,7.4l4.6,8l0.8,0.4v6l6.4,10.6
		l1.2,0.1l0.8-0.9l2.1,0.6l1-1.2l-0.8-1.4l1.2-1.3l-0.3-0.5l0.9-1.6l-0.4-0.3l0.6-0.1l-0.4-0.9l0.9,0.3l1,3.1l0.6-0.6l-1.1,1.8
		l-0.7,3.4l-0.5-0.2l0.3,1.2l-2.6,1l0.5,1.4h0.8l-0.4,5l1.3,2.2l1.7-1.6l1.3,2.3l-0.3,0.9l0.4-0.5l1.3,1.7l-1.4-1.9l2-1.7l2.5-2.4
		l1.8-3.7l1.1-0.8v-2l0.3-1.7l1.6-1.7l-0.4,1.5l1.8,2.2l0.3-0.3l-0.1,0.9l0.9-0.1l-0.6,0.7l0.3,1.6l-0.2-0.1v1.4l-0.6-0.1l-0.8,1.4
		l1.4-0.2l2-1.8l1.5-1.7l0.8,1.1L330,494l1.9-3l4.1-1.2l-1.4,1.5l0.4,1.4l-0.8,0.2l0.4,2.3l1.7,0.5l0.9,3l1.1,0.1V498l0.8,0.2
		l-1.1,2.3l-1.2,0.9l-0.1,1.1l0.6,0.1l-1.8,1.2l-2,0.3l-1.8,3.8l-1.2,0.9l1.3,1.2l0.3,3.3l0.9-0.4l0.2,0.6l0.3-1.9l1,0.3l0.5-0.1
		l1.5,1l-1.8-0.4l-1.5,2.2l0.5,1l1.7,0.5l-0.8,0.5l-0.2-0.4l-0.7,0.9l-1-0.2l1,0.8l-0.8,0.5l0.4,0.7l-0.6,0.5l0.2-1l-0.8-0.1
		l0.5,0.5l-1.2,0.3l-1-0.8l0.4-0.6l-5.3,2.2l-0.2,2.5l0.4-0.3l0.3,0.8l-0.7-0.2l0.1,0.8l1,1.9l-1.9-2.2l0.1-2.9l-2.8,0.8l-0.7,11.1
		l-0.1,4.7l0.5,2.1l2.2,2.1l2.7,0.6l2.3-0.6l-0.8,0.7l3.3,0.1l2.7-0.5l4.2-1.5l-4.5,1.9l-3.3,0.8l-0.9,0.1l0.2,0.5l-0.8-0.5
		l-0.7,1.4l0.8,0.8l-1.3-0.1l0.5,0.7l-0.6,0.2l-1,0.5l0.1-0.6l-4.8,6.7l-2.9,5.3l-0.8,1.4l-0.5,3l1.8,2.6l0.9-0.1l0.3-0.8l-0.5,2.8
		l1.8,4.8l1.8,2.6l1.4,5.7l3.5,2.8l3.4,3l2.8,0.8l0.7-0.5l-0.4-0.7l3.1,1.6l0.5-0.8v-0.2l1.2-1.8l-0.3-0.6l2,0.9l0.4-0.8l2.3-0.8
		l1.2,0.5l0.8-1.2l-0.8,1.5l-1.6-0.3l-1.3,1.2l-0.2,0.1l-2,0.1l-0.7,1.3l0.7,1.8l-2.5,1.9l-2.7-1.2l-1.1,0.2l0.5,0.8l-1,0.5l0.6,0.3
		h-2l-3.4-2l-4.3-6.5l-1.1-3.8l-1.7-4.5l-7.1,3.5l-3.4,2.4l0.8,2.5l3.1,3.4l0.3-0.2l2.4,3.4l-0.6,1.8l0.7,0.4l0.5-0.5l0.2,1l1,0.5
		l-1.5-0.3l0.6,0.8l-0.6,0.8l-0.6-0.7l0.4,1.1l4.4,1.3l5,4.2l1.7,2.4l0.1,1.3l-1.5,1.3l-3.2,0.9l1.8,2.6l1.3,1.2l2.7,1.1l1.5-1
		l-0.5,1.8l-0.9,1.4l1.7,1.2l-0.4,0.8l1.3,1.5l-0.7,0.3l0.8,0.4l-0.8,0.9l0.9,0.9l-0.3,1.5l1.1,0.6l0.5,2.2l2.2,0.8l0.9-0.7l1.5,0.1
		l0.4,1l2.2,0.2l1.8-1.2l1.7,1.1l2.8-1.2l0.7,1.1l0.9-0.2l0.1,1l0.8-0.1l-0.2,1.8l0.7,0.8l1.7-1l2,1.9l0.6-2.9l2.7,1.7l3.1-1.1
		l-0.2-1.8l3.9-1.3l-0.3-1l0.8-0.8l-0.9-1.2l0.1-2.5l2.3-0.8l2.1-2.7l1.4,0.3l0.9-0.2l1.8-1.5l0.4,0.4l2.3-2.8l3.7-4.8l1,0.3
		l-0.1-3.3l1.9,2l2.3-0.2l1.3-0.6l0.8-1.8l1.8,0.4l1.2-0.5l0.8-2.2l-0.2-1l1-0.9l-1.8-1.6l-0.7-1.7l0.6-6.4l-0.8-1.5l0.6-1.4
		l-0.3-1.8l-1.2-0.2l-0.2-0.7l-0.2-0.6l0.8,0.1l1.1-1.2l0.8-3.2l-1.4-0.1l-0.8-1.5l0.8-1.1l0.6,0.5l-0.2-0.6l1.8-2.4l-0.5-1.9
		l0.9-0.9l0.2-1.8l0.5-0.6l0.8,0.6l1.9-0.6l0.3-0.4l-0.6-0.8l1.1-1.9l-0.2-1.4l-1.9-1.1l-0.4-1.2l-4-4.8l-0.8,0.1l-0.2-0.9l-0.2-0.6
		l0,0l0.1-0.8l-0.8-0.5l0.2-2.3l-1.1-1.2l0.2-1.2l-2,0.6l-0.7,0.9l-1.7-0.2l-1-1.6l-0.6,0.8l-0.4-0.4l0.2-1.2l-1.1-0.8l-0.7-2.6
		l1.8-1.4l1-2l-0.4-2.9l0.8-0.8l-0.2-1.2l1.1-0.8l3.3-2.1l1-0.5v-2.2l-2.2-2.2l-0.6,0.2l0.5-1.1l-1.3-1.4l-1.4-3.6l-2.5-0.4
		l-0.6-1.1l-0.7,0.2l0.2-1.2l-0.3-0.7l-0.8-1.9l-1.9,0.9l-0.4-1.1l0.7-0.8l-0.6-0.3l-4.2,0.8l-1.6-2.2l-1.3,0.5l-0.8-0.6v-1.8
		l0.8,0.2l-0.2-0.8l-0.8-0.2l-0.3-2.3l-0.8-0.9l-3.3,1.2l-2.1-0.3l-0.7-0.6l0.4-1.7v-1.5l-2.9-2.2l-0.9,0.1v-0.8l-2.6-2.8l0.3-2.8
		l1.7-0.5l4.8-7.5l1.6,0.4l2-0.2l0.5-1.5l1.5-0.1l0.1-0.9l0.7-0.2l1.5,1.3l0.8-0.4l0.5-1.8l0.2-1.4l-0.7-1.1l0.6-0.8l-0.4-2.7
		l0.9-1.4l-3.9-3.6l1.7-0.3l1.8-1.8l1.2-0.1l0.3-1.6l-0.8-0.7l-0.2-2.4l1-2.2l1.4-0.2l0.2-0.7l1.2-0.5l3.8,0.3l0.8-1.3l0.8,0.6
		l0.3-1.7l-0.8-6.6l-1.6-0.1l-0.8-2l-6-4.9l-1.3-3.9l2.4-2l-0.3-1.5l-2.2-0.8l-1.5-1.7l-0.2-1.3l1.9-3.2l-0.4-0.6l0.6-3.5l0.9-1.1
		l-0.2-1.9l-0.7-0.4l-0.2-1.2l-1.3-0.2l-2.6-2.8l-1.4-2.7l-0.7,1.5l-2.4,0.9l-2.2,2.6l-2.5,0.4l-2.2-1.9l-0.9-2.5l0.6-0.8l-2-3.3
		l1.8-1.3l0.7-2.5l1.3-1.1l-1.4-1.3v-1.9l-1.7-0.6l-0.3-0.8l1.8-1.8v-3.2l2.9-1.8l2.8-0.8l-1.3-2.5l0.8-0.6l-0.5-0.8l0.9-0.9l-1-0.8
		l-1.9,0.8l-1.5,0.2l-0.7-1.7l-0.8,0.1l-0.8-1.1l-0.3-2.2l-3-0.8l-1.9-2.7l-0.3-1.2l0.5-1L346.8,382.5z M309.5,495.4l-1.5,1l0.4,3.8
		l3.6,6.6l2.4,0.1l0.1-0.9l-0.1,0.5l-0.3-0.5l-1.7,0.3l-0.3-1.5l-0.8-0.2l0.2-1.4l-1.8-1.8l-0.1-3.2l-0.9-2L309.5,495.4z
		 M316.5,586.2l0.8,2.8l0.9-0.8L316.5,586.2z"/>
</a>
<a>
	<path id="north-east" class="st1" d="M387.8,314.6l-3.2,2v3.3l-1.3,0.2l-0.8,2.4h-1.7l-0.3,1.7l-1.5,0.3l0.5,1.4l-3.1,3.2v1.3
		l-1.9,1.3l0.9,1.2l-4.3-0.7l-1.3,0.5l-0.7,1.2l0.8,0.7l0.9-0.3l-0.4,0.9l1.7,1.8v2.6l3,2.7l1,3.6l-0.3,1.5l1.6,2.2l0.1,1.6l2.8,0.7
		l-2.2,0.8l-0.3,1.8l-2.3,1.8l-1.8-0.5l-3.3,2.8l-1.2-0.3l-0.8,1.1l0.9,2l-1,0.9l0.6,0.6l-2.6,2l-1.3,0.1l-1-1.2h-1.8l-2.8,0.8
		l-2,3.1l-2.4,0.6l-0.9,2.3l-2.2,1.4l-1.2,2.3l-1.2,0.2l2.2,1.4l-1.2,0.2l-0.1,2.3l-2.2,0.2l-1,2.1l-0.4,1.5l0.9,1.4l-0.5,1l0.3,1.2
		l1.8,2.7l3,0.7l0.3,2.2l0.8,1.1l0.8-0.1l0.7,1.7l1.6-0.2l1.9-0.9l1,0.8l-1,0.9l0.6,0.8l-0.8,0.6l1.3,2.5l-2.8,0.8l-2.9,1.8
		l-0.1,3.2l-1.7,1.8l0.3,0.8l1.7,0.6v1.9l1.4,1.2l-1.3,1.1l-0.7,2.5l-1.8,1.4l2,3.3l-0.6,0.8l0.9,2.5l2.2,1.8l2.4-0.3l2.2-2.6
		l2.4-0.9l0.7-1.4l1.3,2.6l2.6,2.8l1.3,0.2l0.3,1.1l0.7,0.4l0.2,2l-0.9,1l-0.7,3.5l0.4,0.6l-1.9,3.2l0.2,1.3l1.6,1.7l2.2,0.8
		l0.3,1.5l-2.4,2.1l1.2,3.8l6.1,4.9l0.8,2.1h1.6l0.8,6.7l-0.3,1.7l3-0.6l4.8-2.3l-0.1,1l3.1,0.9l1.7,1.7l1.8-0.2l5.3-3.1l0.1-2.4
		l1.2-0.5l3,2.6l1.1-2.4l-0.2-2.8l2.9,0.4l0.8-1.6l1.6,0.7l0.9,0.3l1.6-0.2l0.2,1.1l1.3-0.1l0.1,1.2l1.3-0.6l0.7,0.3l-0.1,0.7
		l1.3-0.2v0.7l-0.7,0.3l0.8-0.1l-0.2,0.9l1.8,1.3l0.7,1.5h1.6l-0.7-0.5l0.2-1.1l0.8,0.2l0.2,0.9l1.2-1.2l-0.5,1.2l1.5,0.2l0.5,1.4
		l-0.3,0.2v0.4l0.8,0.5l-0.1-1.2l0.5-0.4l-0.6-1.1l0.3-1.8l-1.1-0.9l1.1-0.3l1.4,1.3l0.6,0.7l-0.3,0.6l1.2,0.2l0.3-1.8l0.8,0.8
		l0.8-0.9l0.7,0.8l-0.2,1.5l0.6,0.7l1.2-0.7l0.1,0.9l2-1.5l0.8,0.2l1.2-1.6l1.5,0.3v-1.5h0.9l0.5-1l0.2-0.2l5.3,1.1l1.8,0.3l1.5-1
		l3.7,1.4l0.8-0.9l1.3-0.1l2.3,0.6l1,1l3.7-1.1l3.2,0.8l-0.7-1.4l0.2-3l1.3-2l1.7-0.3l0.8-1.1l-1.3,0.3l-2.8-1.4h-2.7l-2-1.7
		l-2.2,0.2l-1.5-0.5l-1.2-0.4l-3.3-2.5l-4.2-1.2l-1.1-1.2l0.1,1.1l-1.2,0.2l0.4,1.4l-0.7,1.1l-2.3,2.5l2.3-3.2l-0.2-1.3l-0.7,0.2
		l-1.8-0.2l0.8-1.1l1.6,0.1l-0.6-0.1l0.2-1.2l0.7-0.4l-1.7-1.3l-0.9-2.2l0.7-1.5l-0.6-0.5l1.5,0.8L442,436l-4.1-2.5l-3.8-5.2
		l-1.3-7.4l-1.7-2.5l-0.5-1.8l-0.4-2.2l0.6-0.8l0.1-0.1l-0.2-1.4l-1.1,0.8l0.5-1.2l0.7,0.2l-0.9-0.5l0.2-2l-0.8,0.8l-1.8-0.2
		l1.8,0.1l1.4-2.2l-0.5-1.5l-1.2-0.9l-2-2.2l0.7-1.2l-1.1,0.9l-0.3-0.6l-1.6,2.7l0,0l-5.1,0.1l1.8-0.5l3-0.2l0.6-1.6l0.9-1l1.7-0.2
		l-1.8-1.8l-2-4.8l-0.6-1.2l-1.6-2.5l0.3-1.2l-1.8-2.7l2.2,3l-2.6-4.8l-0.8-0.2l1-0.2l0.6-2.1l1-0.4l-1.2-2.3l-0.5-2.2l-1.7-1.9
		l-1.3-3.3l1.5-5l-1.2-1.4l-2.2-1.1l2,0.5l-1.1-0.6l-1.2-4.2l-0.4,0.5l-0.6-1.1l0.2-0.5l0.6,0.9l1.8-2.3l0.3-2.7l-1.1-1l0.1-5.7
		l-1.4-0.7l0.2-2.5l-1.7-2.1l0.3-1l0.8-0.2l-1.7-2.4l0.4-0.5l-5.2-4.2l-1.2-0.2l-1.9,1.6l-0.9-1.4l1.3-1l-1.2-2.1l-1.8,1.2l-1.7-1
		l-1.8-2.5l-0.2-1.8l-0.8-0.2l0.1-1.2l-4.7-4.2l-2-3l0.6-0.4L387.8,314.6L387.8,314.6z M403.5,328.3l-4.6,0.1l0.8,0.8l1.6-0.4
		l0.8,1.6h1.5L403.5,328.3L403.5,328.3z M370.5,433.3l-0.9,0.4l0,0L370.5,433.3L370.5,433.3z"/>
</a>
<a>
	<path id="yorkshire-and-humber" class="st1" d="M466.9,450.7l-0.7,1.1l-1.7,0.3l-1.3,2l-0.2,3l0.6,1.4l-3.2-0.8l-3.7,1.1l-0.9-1
		l-2.3-0.6l-1.3,0.1l-0.8,0.9l-3.7-1.4l-1.5,1l-1.8-0.3l-5.3-1.1l-0.3,0.2l-0.4,0.9l-0.9,0.1l-0.1,1.5l-1.5-0.3l-1.2,1.7l-0.8-0.2
		l-1.9,1.5l-0.1-0.9l-1.2,0.7l-0.5-0.7l0.1-1.5l-0.7-0.8l-0.9,0.9l-0.8-0.8l-0.3,1.8l-1.3-0.2l0.3-0.6l-0.7-0.7l-1.3-1.3l-1,0.3
		l1,0.9l-0.2,1.8l0.6,1.1l-0.6,0.4l0.1,1.2l-0.7-0.4l-0.1-0.4l0.3-0.2l-0.5-1.4l-1.5-0.2l0.4-1.2l-1.2,1.2l-0.2-0.9l-0.8-0.2l-0.2,1
		l0.7,0.6l-1.7-0.1l-0.6-1.5l-1.8-1.3l0.2-0.9l-0.8,0.1l0.6-0.2l0.1-0.7l-1.4,0.2l0.2-0.7l-0.8-0.3l-1.3,0.6v-1.2l-1.3,0.1l-0.2-1.1
		l-1.6,0.1l-0.9-0.2l-1.6-0.7l-0.7,1.6l-3-0.4l0.2,2.8l-1.1,2.5l-2.9-2.6l-1.2,0.5l-0.1,2.4l-5.3,3.1l-1.8,0.2l-1.7-1.7l-3.1-0.9
		l0.1-0.9l-4.8,2.3l-3,0.6l-0.8-0.6l-0.8,1.4l-3.8-0.3l-1.2,0.5l-0.2,0.7l-1.4,0.2l-1,2.2l0.2,2.4l0.8,0.7l-0.3,1.6l-1.2,0.1
		l-1.8,1.8l-1.7,0.3l3.9,3.6l-0.9,1.4l0.4,2.7l-0.6,0.8l0.7,1.1l-0.2,1.4l-0.4,1.8l-0.8,0.4l-1.5-1.3l-0.7,0.2l-0.1,0.8l-1.5,0.1
		L364,488l-2,0.3l-1.6-0.5l-4.8,7.5l-1.7,0.5l-0.3,2.8l2.6,2.8v0.8l0.9-0.1l2.9,2.2v1.5l-0.4,1.7l0.7,0.6l2.1,0.3l3.3-1.2l0.8,0.9
		l0.3,2.3l0.8,0.2l0.2,0.8l-0.8-0.1v1.7l0.8,0.6l1.4-0.5l1.5,2.2l4.2-0.8l0.6,0.3l-0.7,0.8l0.4,1.1l1.9-0.9l0.8,1.9l0.3,0.7
		l-0.2,1.2l0.7-0.2l0.6,1.1l2.5,0.4l1.4,3.6l1.3,1.4l-0.5,1.1l0.6-0.2l2.2,2.2v2.2l-1,0.5l-3.3,2.1l-1.1,0.8l0.2,1.2l-0.8,0.8
		l0.4,2.8l-1,2l-1.8,1.4l0.7,2.6l1.1,0.8l-0.2,1.1l0.4,0.4l0.6-0.8l1,1.6l1.7,0.2l0.7-0.9l2-0.6l-0.2,1.2l1.1,1.2l-0.2,2.3l0.8,0.5
		l-0.1,0.8l0.3,0.6l0.2,0.9l0.8-0.1l4,4.8l0.4,1.2l1.9,1.1l0.2,1.4l1.1,0.5l1.3-0.8l2.1,2.2l1.2-0.1l0.2,0.8l1.2,0.2l-0.6,0.5
		l0.9,0.4l-0.3,2.4l2.1,1.8l1.5,0.2v3.9l1,1.1l1.7,0.1v1.1l3.3,1.3l-0.6,2.8l4.8,2.2l-1.4,0.3l-1.3,2.5l0.3,0.5l1.2-0.7l0.5,0.4
		l0.2,0.8l0.9-1.1l0.3,1.1l1.2-0.5v1l1.6,0.2l2.3-1.4l1.3-0.2l0.9,0.2l0.8-0.5l-0.3-0.9l1.2-0.8l1.4,0.3l0.6-0.8l1.6,0.8l-0.1,1.8
		l1.8,0.3l0.4-0.5l1.2,0.4l0.9-1.4l0.2,0.3l0.6-0.9l0.8,0.1v0.1l0.7,0.7l-0.5,1.2l0.9,0.6l2.6,0.8l0.8-0.8l1.8,0.4l0.2-0.8l3.9-3.3
		l-0.1-0.6l-1.1,0.2l-0.3-1.4l1.5,0.2l-0.5-1.5l1-0.7l-0.2-1.6l1.2-0.8v-1.2l0.5,0.2l1.3-2.2l3.7-0.7l0.1,0.7l1-0.2l1.2-1.2l0.6-3.8
		l2.1-1.5l1.1-2l2.4,3l-1.2,1.1l0.2,0.5l2.8-0.1l0.1-0.6l4.9,1.2l0.8-1.1v-1.3l0.8-0.4l0.2-2.1l1.1-0.2l0.8-2.2l7.4,0.7l-0.5,3
		l0.3,2.9h4.2l6.1-2l-0.9-0.6l0.3-1.8l-0.5-0.9l5.4-1.5l-0.2-1.6l-0.9-0.2l-0.6-1.3l-4.6,1.1l0.7-1l1.6-0.4v-0.7l1-0.3l1.4-1.8
		l0.6,1.2l4.6,0.3h0.8l2.2-4l-0.5-2.1l1,0.1l2.9,2.1l-0.2,1l1.1-0.2l0.8,1.9l1.8-0.4l0.6,0.8l-2.1,3.5h0.7l0.4,2.2l-0.3,2.8l1.4,0.2
		l0.5,1.7l1.8,0.3l0.3,2.1l1.2,1.2l0.7,0.2l2.4-2l-1.8-2l1.2-0.9l-0.4-0.9l1.3-0.4l0.6-3.2l1.2-0.2l0.5,0.8l3.2-0.9l0.5-0.5
		l-1.3-1.8l-3.3-3.6l-0.6-0.6l-0.8-0.1l-0.4,0.8l-0.9-0.4l-1.2-1l-6.2-5.1l-6.1-8.2l-6,1.4l-0.4,0.6h-5l-1.2,0.9l-1.3,1.2l-1,0.3
		l-4-1.7L480,543l-5.3,2.2l0.6,2.6l-0.9-1.4l-0.1-1.4l-1.8-0.7l2-0.1l1.4-1.9l3.1-0.8l-0.4-0.6l3.1,0.8l2,1.9l5.2-1h0.7l1,0.3
		l7.4-2.8l2.9-0.5l2.6,0.1l0.3-1.6l-0.1,2.7l0.5,0.4l0.7,2l7.6,7.4l3.9,1l5.6-2.4l3.1,0.9l2.8,1.8l1.3,1.7l0.1,0.7l0.1-0.6l-0.2-1.8
		l-2-4.5l-18.2-25.5l-2.3-6.2l-1.7-5.2L505,505l0.8-2.2l0.8-0.2l1.1-2.1l4-0.8l1.8-1.3l-1.2-1.3l-7.1-2.9l-0.6-0.1l-3.3-1.9l-1.5-3
		l0.5-1.5l1.2,0.1l-2.8-1.2l-4.4-2.3l0.2-0.5l-2-2.2l0.7-1.5l-1.5-0.6l-0.7-4.1l-1.1-0.9l-2.1-5.3l-1.8-1.9l-2-0.9l-0.7-1.8l0.7-1.6
		l-4.4-4.5l-1.5-0.5l-3.7-0.7l-0.8-2l-2.2-1.6l-1.8,0.7l-2-3.2L466.9,450.7z M421.7,586.2l0.5,0.7l0,0L421.7,586.2L421.7,586.2z"/>
</a>
<a>
	<path id="east-midlands" class="st1" d="M499.9,553.6l0.5,2.1l-2.2,4h-0.8l-4.6-0.3l-0.6-1.2l-1.4,1.8l-1,0.3v0.7l-1.6,0.4
		l-0.7,0.9l4.6-1.1l0.6,1.3l0.9,0.2l0.2,1.6l-5.4,1.5l0.5,0.9l-0.3,1.8l1,0.6l-6.1,2h-4.2l-0.3-2.9l0.5-3.1l-7.4-0.6l-0.8,2.1
		l-1.1,0.2l-0.2,2.1l-0.8,0.4v1.3l-0.8,1.1l0,0l-4.9-1.2l-0.1,0.5l-2.8,0.2l-0.3-0.5l1.3-1.1l-2.4-3l-1.1,2l-2.2,1.5l-0.5,3.8
		l-1.2,1.2l-1,0.2l-0.1-0.7l-3.7,0.7l-1.3,2.2l-0.5-0.2v1.2l-1.2,0.8l0.2,1.6l-1,0.7l0.5,1.5l-1.5-0.2l0.3,1.4l1.1-0.2l0.1,0.6
		l-3.9,3.3l-0.2,0.8l-1.8-0.4l-0.8,0.8l-2.6-0.8l-0.9-0.6l0.5-1.2l-0.7-0.7l-0.8-0.2l-0.6,0.9l-0.2-0.3l-0.9,1.4l-1.2-0.4l-0.4,0.5
		L430,587l0.1-1.8l-1.6-0.8l-0.6,0.8l-1.4-0.3l-1.2,0.8l0.3,0.9l-0.8,0.5l-0.9-0.2l-1.3,0.2l-2.3,1.4l-1.6-0.2v-1l-1.2,0.5l-0.3-1.1
		l-0.9,1.1l-0.2-0.8l-0.5-0.4l-1.2,0.7l-0.3-0.5l1.3-2.5l1.4-0.3l-4.8-2.2l0.6-2.8l-3.3-1.3v-1.1l-1.7-0.1l-1-1.1v-3.9l-1.5-0.2
		l-2.1-1.8l0.3-2.4l-0.9-0.4l0.6-0.5l-1.2-0.2l-0.2-0.8l-1.2,0.1l-2.1-2.2l-1.3,0.8l-1.1-0.5l-1.1,1.9l0.6,0.8l-0.3,0.4l-1.9,0.6
		l-0.8-0.6l-0.5,0.6l-0.2,1.8l-0.9,0.9l0.5,1.9l-1.8,2.4l0.2,0.6l-0.6-0.5l-0.8,1.2l0.8,1.5l1.4,0.1l-0.8,3.2l-1.1,1.2l-0.8-0.1
		l0.2,0.6l0.2,0.7l1.2,0.2l0.3,1.8l-0.6,1.4l0.8,1.5l-0.6,6.4l0.7,1.7l1.7,1.6l-1.1,0.9l0.2,1l1.7-1.3l0.3,1.3l3.5,1.7l1.9,0.3
		l3.8,4l-0.3,2.5l2.5,3.6v1l-0.7,0.5l0.5,2.8l0.7,0.4l-0.6,1l0.4,0.6l1.4,1.5l-0.3,3.4l-4.2,2.4l-0.2,3.5l-1.6,1.6v1.2l1.7,2.6
		l-0.2,1.1l1.4,0.7l0.6-0.6l0.9,0.7l0.7-0.4l2.1,1.7l1.3,0.9l1.4-0.8l0.1,0.6l0.8-0.3l4.2,1.1l2.8,2.5l-1.7,1.8l1.2,0.7l0.2,1
		l-1.7,1.3l0.2,0.8l-0.5-0.4l-0.5,0.6l-0.8-0.8l-0.8,0.8l-1.1-0.6l-2.1,3.6l0.3,0.9l-1,1.4l3.3,1l0.2,2.5l1.3-0.4l2.1,0.7l0.4-0.4
		l0.7,0.7l-0.2,0.8l2.5,2l0.7,1.6l-0.3,1.2l-1.6,0.8l0.3,1.6l0.8,0.7l-0.4,2l2.2,1.5l0.3,1.3l4.2,2l2.8,1.9l6.2,3.6l1.3,0.8l4.4,5.8
		l0.2,0.4l2.4,4.2l2.1,3.9l-0.2,0.5l-3.1,0.8l-2.8,1.7l-0.4,0.7l3.8,1.4l-1.6,2.7l0.7,0.4l0.6,2.2l-1.1,1.5L440,704l-0.8,1.3
		L438,705l0.6,1.8l1,0.7l0.4,1.8l-1.8,0.8l-2.2,0.2l-1.1,2.5l5.6,7.7l-1.6-0.1l-3.2,1.2l0.2,0.8l1.4,0.2l-1.1,3l2.4,4l-0.7,2.7
		l0.4,1.2l2.8-0.8l3.1,1l1.4-0.6l0.8-1.2l2-0.4l1.2-2.1l-1.4-0.6l0.9-2.5l4-2l2.4-0.2l-1.1-1.1l5,0.3l1.1-1.2l0.8,0.6l0.8,3.5
		l1.5,2.3l1.2-1.1l0.7,0.3l0.6-1.2l1.2-1.2l-0.7-1.1l1.6-0.3l0.6-0.9l-1.1-2.1l-1.5-0.9l-0.2-1.3l-1.1-0.2l0.4-1.3h0.1l3.5-0.8
		l-0.2-1.2l1.2,0.1l0.4-1.6l1.1,0.6l0.5-1.6l1.2-0.6l0.2,0.9l0.8-0.4l3-2.8l2.5-0.4l2-3.6l-1.2-4.5l2.9-1.2l1.6,0.6l1.5,2.1l1.7-0.4
		l0.6-1.4l-0.8-2.1l1.8-2.8l-0.4-0.3l3.7-0.7l-0.2-1.8l-1.2-0.2l0.4-0.9l-1.4-1.2l0.6-1.5l-0.5-0.6l3.8-0.8l1.6-1.9l-0.1-0.9
		l0.4-0.1l3.2-2.3l-0.7-0.4l1.2-2.5l0.8-0.8l-1.2-2.5l0.3-1.8l-4-2.1l0.8-1.3l-0.1-1l-1.2-1.2l0.8-0.5l-0.6-1.6l-0.7-0.4l-3.5,1
		l-1.3-1.4l1.7-3.4l-0.2-1.1l-1.4-1.3l0,0l1.2-0.9l1.5-0.1v-0.6l3.2,0.6l3.7-1.6l0.9-1.4l3.1,0.4l2,2l3.6-1.9l0.9,1.7l0.9-0.9
		l2.6,0.9l2.5-2.3l1,0.6l1.5-1l2.2,1l0.1,0.4l3.5-0.4l1.8-1.9l-0.4-3.6l1.2-1.4l1.7,0.3l2.9-1.8l2.5-0.1l1.1,0.5l5.5-4.3l-1.8-1.2
		l1.3-2.9l-3.3-0.6l-0.6,3.6l0.4-4.7l-2.8-5l-1.7-0.9l-1.8-0.8h-2.1l-2.2-1.2l-1.3,0.4l0.3-0.8l-1,0.7l1.2-1.8l-0.6-0.9l1,0.6
		l1.7-1.5h-2.4l2.5-0.2l0.9-2.6l-0.5-0.1l4.4-6.1l2.7-2.5l1.2-0.8l4.8-4.6l-0.8-0.1l2.1-0.8l-1-0.5l2.1,0.5l0.7-0.9l0.8-10.4
		l-0.6-1.8l-0.8-3.3l-6.7-14.4l-1-3.6l-2.1-1.2l1-0.4l-1.7-1.8l0.8,0.2l-1.1-0.8l0.4-0.7l-2.3-3.2l0.7,0.2l-0.3-0.6l-1.1-1.2
		l-0.2,1.3l-1.1-0.2l0.5-1.2l-1.8-0.9l0.6,1.2l-0.3,0.7l-0.8-0.6l-0.5-0.1l-1-1l0.6-1.2l-0.6-0.2l-0.1,0.6l-2.6-1.6l0.6,1.3l0.6-0.3
		l-0.1,1l-2.5-1.8l-0.5,0.5l-3.2,0.9l-0.5-0.8l-1.2,0.2l-0.6,3.2l-1.4,0.4l0.4,0.9l-1.2,0.9l1.8,2l-2.4,2l-0.7-0.2l-1.2-1.2
		l-0.3-2.1l-1.8-0.2l-0.5-1.7l-1.4-0.2l0.3-2.8l-0.4-2.2l-0.6-0.1l2-3.4l-0.6-0.9l-1.8,0.4l-0.8-1.9l-1.1,0.2l0.2-1l-2.9-2.1
		L499.9,553.6L499.9,553.6z"/>
</a>
<a>
	<path id="east-england" class="st1" d="M567.8,620l-0.8,0.1l-0.2,1l1.1-0.8l1.1,0.8l2.4-0.2L567.8,620L567.8,620z M567,620.1
		l-1.5,0.2h1.4L567,620.1L567,620.1z M586.4,620.1l-0.3,0.3l-0.2,0.8l1.7-0.8L586.4,620.1z M587.6,620.4l2.7,1l-1.1,0.4l-0.2,0.9
		l-2.2-0.2l0.1-0.7l-3.2,0.7l-1.1-0.7l-0.1,0.5l-2.7,0.2l1.9-0.4l-0.8-0.7h-0.2l0.1,0.1l-0.5,0.5l0,0l0.5-0.5l-1.6-0.9l-0.9,2.3
		l0.8-1.3l0.7,0.2l0,0l0.3,0.1l-0.3-0.1v0.8l-0.3,0.6l-1.3-0.2v-1.8l-2.1-0.2l1.1-0.3l-1.6,0.2l0.1,0.8l-2.2-0.7l-2,0.1l0.7,0.1
		l-0.2,0.7l-1.7,1v-1.2l-1.5-0.2l-0.9-0.4l-1.3,0.8h0.9l-1.4,0.1l0.4-0.7l-3.6,0.4l0.4,0.2l-0.6,0.3l0.1-0.5l-1.8-0.2l0.9,0.9
		l-0.9,0.2l-0.3-0.8l-0.9,1l-0.7-1.3l-1.4,0.2l-3.4,3.7l-2.5,7.6l0.2,3.3l-0.8,0.5l-0.2-0.8l-0.8,0.7l0.6,0.3l-1.1,0.2l0.1,0.5h-1.1
		l-1.3,1.7l0.4,0.8l-0.5,0.1l-0.4,1.2l0.5,1.9l-0.5-1.4l-2.8-2.5h-2.7l-1.2,0.6l-1.3,2.9l1.8,1.2l-5.5,4.2l-1.1-0.5l0,0l-2.5,0.1
		l-2.9,1.8l-1.8-0.3l-1.2,1.4l0.4,3.6l-1.8,1.9l-3.5,0.4l-0.1-0.4l-2.1-1l-1.6,1l-1-0.6l-2.5,2.3l-2.6-0.9l-0.9,0.9l-0.9-1.7
		l-3.6,1.9l-2-2l-3.1-0.4l-0.9,1.4l-3.7,1.6l-3.2-0.6v0.6l-1.5,0.1l-1.2,0.9l1.4,1.3l0.2,1.1l-1.7,3.4l1.3,1.4l3.5-1l0.7,0.4
		l0.6,1.6l-0.8,0.5l1.2,1.2l0.1,1l-0.8,1.3l4,2.1l-0.3,1.8l1.2,2.5l-0.8,0.8l-1.2,2.5l0.7,0.4l-3.2,2.3l-0.4,0.2l0.1,0.8l-1.6,1.9
		l-3.8,0.8l0.5,0.6l-0.6,1.5l1.4,1.2l-0.4,0.9l1.2,0.2l0.1,1.8l-3.7,0.7l0.4,0.3l-1.8,2.8l0.8,2.1l-0.6,1.4l-1.7,0.4l-1.5-2.1
		l-1.7-0.6l-2.8,1.2l1.2,4.5l-2,3.6l1.7,0.7l1.1,0.8l-0.2,2.9l-0.7,0.2l0.5,1.6l1.8,0.4l1.1,2.5l-0.9,2.1l-1.6,1.2l-2.4,3.5l1.8,1.2
		l0.2,1.5l-0.7,0.6l0.5,0.8l-1.2,1.2l1.2,3l-0.5,0.3l-0.6,1.5l-0.7-0.1l0.2,1.3l-0.8,0.2l-1.2,3.6l0.7,1l1.3-0.2l1.4,1.6l2.2,0.1
		l0.8,1.1l1.7,0.5l3.2,4.2l-0.4,0.8l-0.6-0.2l-0.2-0.5l-1.7,2.7l-3.5-1.4l-1,0.8l-1.3-0.2l-1.9-2.7l0.5-0.9l-0.6-1l-1.4,0.1
		l-1.9,1.7l1.5,2.6l1-0.3l1.7,2.2l-0.3,0.8l1.2,2.6l4.1,2.2l1.8-0.5l1,1.8l0.6-0.5l0.6,0.6l0.2,1.2l-0.8,1.2l1.3,1.6l-0.1,1.8
		l1.5-0.2v0.3l0.9-0.1l0.4,0.8l-0.6,0.8l-0.5-0.2l-0.1,1l-0.9-0.2l0.4,1.2l-0.5,1.2l1.2,3.6l1.5,0.6v-3.4l2.9,2l1.1-0.9l2.5,0.7
		l1.8-0.5l0.7-0.3l0.3-0.3l3.1-1.9l0.8,0.3l0.6,0.2l2.2-1l0.4,0.3l0.4-1.5l2.6-0.7l0.6-1l0.8,0.7l0.6-0.5l0.7-0.5l0.6-1.7l3.1-0.2
		l0.8-0.3l6.4,1.1l0.1,3.8l2.6,0.9l-0.2,1l1.3,1.4l2.2,1.1l1.1-0.1l0.2-0.9l2.5-0.9l0.6-0.2l4-0.3h0.2l1.6-0.8l2,1.5l0.8,1l-0.7,0.8
		l1.1,0.2l1.5,3.8l1.5-0.2l1.6,2.7h-0.8l-3.8,1l-0.1,1.6h-0.7l-0.3-1.2l-0.2,1.1h-0.6l0.4,1.2l-1.1,0.2l0.2,0.8l-1.1,0.6l-0.2,0.5
		l4.9,3l1.1-1.2l1.7-0.2l1.3,2.2l1.2,0.1l5.1-1.3l0.7-4l-0.3-0.4l1-0.6l3.6,0.1l2.2-0.9l-1.3-0.3l-1.1-2.3l-0.1-0.5l-0.9-0.7l1,0.6
		l0.8,1.4l0.8,1.2l0.8-0.3l0.9,1.2l1.4,0.2l4.3-1.7l-1.2,0.2l0.8-0.6l-2.2-0.4l0.2-0.6l-1.1-0.2l-1.8-0.8l4.4,0.6l1.2-0.4l3.1,0.6
		l5.6,0.8l1.3,0.3l4.1-3.9l-2.2-0.5l-0.7-1.8l-0.9,0.7l0.7-1.5l-2,0.4l2.8-1.7l-0.9-1.2l1.1,1.1l3.1-0.2l-0.1-1.8l-5.6-0.8l-1.4-1.3
		l-1.8,0.8l-1.1-0.5l-0.4-0.8l2-0.3l1,0.1l2.3,2l0.5-0.5l3.9,0.8l3.1-0.2l2.2-1.6l-0.2-2.7l0.9-2.5l-0.8-2.1l0.7-3.1l-1.4-1.8
		l-2.3,0.4l-2.9,3.2l-2.2-0.5l-1.8,0.4l0.2,1.1l-2,0.7l-0.6,1.3l-1.3,0.4v-0.7l0.7,0.2l0.2-1l1.2-0.9l-3.9-0.4l-1.8-1.8l1.3,0.8
		l0.5-1.6l1.5,0.8l1.2-0.4l0.2-0.4l0.2-0.8l1,0.4l0.1-0.6l0.9,0.8l0.2-1l1.5,0.7l2.3-0.2l-0.1-0.8l0.7,0.4l1.8-1.6l-1.5-0.7h-1.2
		l-0.1-0.6l1.1,0.2l-1.4-0.4l1.5-0.4l0.2,0.7l2.3,0.2l-1.2-1.3l-0.7-1.4l1.8,1.8l0.2-0.8l0.4-2.4l0.5,0.5l1.7-0.8l-0.5-0.2l2.7-0.7
		l-1.8-0.9l1.4-0.1l-0.8-1.2l2.1,1.6l-0.5-3.1l1,0.8l-0.5,1l0.8,1.5l2.2,1.1l2.2-0.8l-0.2-0.8l0.8-0.3l-0.1,0.6l-0.8,0.9l-0.3,0.7
		l-2.1,0.1l1.4,1.2l0.2,1.7l-0.7-1.6l0.8,1.9l3.7-0.6l2.6-0.3l6.9-5l3.2-4.6l0.2-1.6l-1.6-0.2l0.1,1.2v-0.1h-0.1l0,0v-0.1l0.1,0.1
		l-0.1-0.2l-0.2-0.3l-0.2-0.1l-0.1,0.1l-0.2-0.1h-0.1l-0.2-0.1v0.1l-0.1,0.1l0,0v0.1v0.1l0.2,0.1v0.1h0.2l0.2,0.2v0.2l0.2,0.1
		l-0.1,0.1h-0.7l-0.2,0.8l-0.1-0.7l-0.8,0.1l-0.2,0.8l-0.4-1.9l-1,0.4l0.8-1.2l-1.1,1.1h-2l2.1-0.8l-0.8-0.7l0.9-0.6l1-0.1l-1.1-0.6
		l0.9-0.8l0.3,0.2v-0.1l0.1,0.1l1,0.5l0.3-2.4l1.8-1.9l1-0.2l-0.4-1.5l-0.8,1.2l-2.2-0.9l-1.3,1.1h-0.7l0.1-0.6l-2.1,0.6l-0.5-0.1
		l-0.8-0.7l-3.4,1l-3.9-0.5l-1-1.4l1.1,1.2l1.4-1.2l3,0.5l2.2-2l1.7,1.6l1.5-0.1l0.7,0.3l1.5-1l2.2,0.5l-0.6-3.4l-3.8-0.8l-2.8-1.8
		l-1.3-2.1l1.8,1.3l2.5,1.5l2.9,1V726l1.6,1.1l0.2,2.6l2.6,1.9l0.1,2l1.6-2.8l2.8-2.5l0.2-1.2l-2.1-1.8l1.8,0.7l0.5,1.3l2.3-2.1
		l1.9-4.4l-0.8,0.1l3.2-3.1l0.4,0.1l0.6-0.7l2.2-0.7l-4,2.6l-1.6,2.2l1.6-1.9l6.2-3.8l2.1-10.8l0.2-9.3l2.1-4.4l0.6-0.2l3.2-9.7
		v-4.9l1.4-3.1l0.3-1l-1.8-5.5l-0.8-3.6l0.4-0.8l-0.3-0.6l0.4,0.4l-0.6-8.1l-2.7-7.4l-2-2.8l-6.5-6.2l-10.6-8.4l-5.8-3.7l-5-1.8
		l-9.1-0.9L587.6,620.4L587.6,620.4z M608.4,737.3L608.4,737.3l0,1.5l1-0.5L608.4,737.3L608.4,737.3z M610.6,738.9l0.6,0.9l0.4-0.3
		L610.6,738.9z M610.4,739.3l-2,0.1l-0.3,0.7l1.3,0.7L610.4,739.3z M610.5,739.4v0.1l-0.1,0.2v0.2v0.2h-0.2l-0.2-0.1v0.1h0.1
		l-0.1,0.1l0.5,0.1l0.1,0.1v-0.5v-0.2L610.5,739.4L610.5,739.4z M611,741.1v0.2h-0.2L611,741.1L611,741.1L611,741.1z M590.9,748.1
		l-1.7,0.8v-0.5l-2.9,3.1l0.4,0.6l3.2-0.4l2.6-1.3l1.1-1.3L590.9,748.1L590.9,748.1z M574.6,757.3l-0.8,1.2h1.4L574.6,757.3
		L574.6,757.3z M576.9,757.8l1.2,0.7l1.1-0.5L576.9,757.8z M591.2,768.7l-5.6,0.9l-0.5,2.2l-1.9,0.2l0.6,1.3l-1,0.7l-0.4,1.2l1,0.3
		l-0.2-0.6l1.6,1l4.4-3.9L591.2,768.7z M582.4,771.7l-1.2,1.1l0.9,2.2l1.1-2.2l-0.1-1L582.4,771.7L582.4,771.7z"/>
</a>
<a>
	<path id="south-east" class="st1" d="M479.4,709.2l-2.5,0.4l-3,2.8l-0.8,0.4l-0.2-0.9l-1.2,0.6l-0.5,1.6l-1.1-0.6l-0.4,1.6
		l-1.2-0.1l0.2,1.2l-3.5,0.8l-0.5,1.3l1.1,0.2l0.1,1.3l1.5,0.9l1.1,2.1l-0.6,0.9l-1.6,0.3l0.7,1.1l-1.2,1.2l-0.6,1.2l-0.7-0.3
		l-1.2,1.1l-1.5-2.3l-0.8-3.5l-0.8-0.6l-1.1,1.2l-5-0.2l1.1,1.1l-2.4,0.2l-4,2l-0.9,2.5l1.4,0.6l-1.2,2.1l-2,0.4l-0.8,1.2l-1.4,0.6
		l-3.1-1l-2.8,0.8l-0.4-1.2l0.7-2.7l-2.3-4.1l1-2.9l-1.4-0.2l-0.2-0.8l3.2-1.2l1.6,0.1l-5.6-7.8l-1.2,3.7l-1.2-0.1l-1.8,1.9l1.5,0.2
		l0.9,1.8l-1.9,0.8l-2.7-2.6l-1.9,0.5l0.5,1.7l-2.1-0.4l-1.6,3.2l0.3,1.4l-1.6,6.8l-0.4,0.6l-0.9-0.5l-1.1,0.5l0.6,1.2l-2.1,0.9
		l-1.3-0.4l0.6,0.7l-1.4,1.6l-3.7-3.5l0.2,2.6l0.5,0.7l1.6,0.2l1.2,1.9l-2,1.7l0.8,2.5l-1.8,0.3l-0.6,2.2l-1.4,1.2l0.8,1.7l-0.7,1.7
		l0.6,1.9l-0.3,1.4L409,755l1.3,1.4l0.9,3.3l-0.6,1.8l0.7,1.4l1.9,1.5l0.7,1.3l-0.9,0.4l-1.7-0.9l-1,1.8l0.5,2l2.2,2l-0.9,1.4
		l0.4,0.7l-1.6,1.2v2.3l-0.1,0.1l1,1.5l1.5-0.8l0.5,0.5l3.1,5.8l1.2-0.8l0.1,3.2l1.7,2.9l2.4,2.3l-0.2,2.5l-2.6,0.2l-0.4,0.8
		l0.6,0.8l0.7-0.2l-0.2,1.6l2.9,2.6l1.2,0.2l-0.3,1.4l1.1,1l-0.9,2l-2-1l-0.4,2.4l0.9,2.2l-0.2,1l-1.4,0.6l0.2,2.2h0.7l-0.4,1.3
		l-0.6,0.3l-2.2-1.1l-2.1,0.3l-1.8,3.9l-3.9,0.3l-0.2,1.2l1.7,1.4l-0.2,1.3l1.1,2.1l0.2,0.4l-0.6,3.1l2.6,1.1l-0.8,2.8l0.6,1.6
		l-0.4,4l0.2,0.9l2.3,1l-0.4,0.7l0.5,1l-0.8-0.2l-0.4,0.3l0.6,0.5l-1.6,0.3l0.7,1.8l1.1,0.5l-1.1,2.2l0,0l-0.2,0.5l-0.8-0.5
		l-1.8,1.5l-1-0.5l-0.9-0.5l-2.1-2.4l-2.3-0.1l-3.2-1.5l-1,0.6l-1.4-2.6l-1.2,0.6l-1.4,2.2v-2.4l-0.8,0.8l-2.8,0.2l-1.5,1.7
		l-0.5-0.8l0.1,1.3l2.4,1.8l3.2,4.8l2.2-1.6l2.2,0.5l-0.4,2.6l-0.6,0.9l-1.2-0.2l-0.4,0.8l0.3,0.3l-0.7,2.2l0.2,0.8l1.4,0.3l1.5-1
		l0.4,2.4l0.8,0.7l-0.9,0.7v1.8l-0.6,0.6l0.7,1.3l-0.2,0.5l1.2,1.5l0.1,1.5l2.6-1.6l0.7,1.7l-0.3,1.8l4.3-0.4l-0.8,1.6l3.5,0.6
		l5.2,2.2l-0.8-0.7l1.7-0.5l1.7-1.6l-0.8-0.3l1.1-0.6l-0.6-2.1l1.1,1.1h1.2l7-2.3l0.5-0.3l-0.6-0.6l3.3-0.2l2.7-3.5l-0.2-0.6
		l0.1,0.6l-0.8-0.1l-0.1-0.8l0.5-0.1l-1.4-0.2l0.3-1.2l-0.5-0.8l-1.3,0.2l0.5-0.6l-1.7-0.6l-3.1-4.5l-4.2-1.6l0.5-0.5l-0.2-1.5
		l0.7,1.8l1.1,0.8l0.8-0.4l-0.3-0.5h0.1l0.2,0.4l2.7,1.9l0.1-0.5l0.3,1.2l0.4-2.6l1.2-0.6l-0.9,0.9l0.1,1.6l1.2,1l3.6,3.4l-0.2-2.9
		l1.1-0.4l-0.4,4.2l4.3,2.5l2.1,0.8l1.9,2.2l3.3,1.7l2-1.8l-2,0.5l1.7-1.3l-0.5-0.9l-0.9,0.2l0.9-0.5l-1.6-2.1l-0.8,0.2l0.3-1.3
		l-1.6-0.3l1.5-0.7l1.8,0.8l1,0.1l-0.3-0.9l1-0.2l-0.2,0.9l1.2,1l0.5-1.1l2.7,0.5l-2.2-0.3l-0.6,1.3l-1.1-0.2l0.6,1.2l0.2,0.7
		l-1.5,0.3l0.2,1.7l1.4,1.5l4.1-1.1l-0.1-1l-0.9,0.7l-0.1-2.1v-2.4l0.5-0.4l0.8,1l0.1-2.9l0.2,1l1.3-0.1l1.4,0.9l0.5-0.8l2.9-0.2
		l-0.1,1.4l1-0.3l0.5,0.6l-0.1-1.3l1.3,0.1l0.2,2.2l1.1,0.8l0.8-1.7l-0.4-1.4l0.8,0.1l-0.1,1.3h0.7l-1.2,1.6l1.8,0.9l1.6-1.4
		l0.3-1.8l0.4,0.3l-1.2,2.8l-1.3,0.6l-2.3-0.8l-1.8,2.8l-0.8,0.2l0.2-0.9l-0.3,0.9l5.2,2.8l4,3.3l2.1-3.8l-0.5,0.7l-0.8-1.2l-1,0.2
		l0.3-0.9l1.4-0.2l0.6,1.2l3.5-2.2l11-2.7l1.3-0.2l6-0.2l5.2-1l5.7-1.8l2.1,0.2l2.2-0.3l4,0.5l1.5,0.3l2.1,1.1l1-0.4l3.8,1.2
		l4.8,1.7l2,0.7v-0.7l4.5,2.5l1.8-0.1l4.7,2h3.1l5.2-6.8l2.6-2.4l8.6-2.8l7.2-2l2.6-1.4l1.4-0.1l4.2-4.7l3-1.7l-0.2-0.4l5.8,0.6
		l8.2,1l0.5-0.8l-1.4-5.4l1.8-6.1l5.4-4.7l8.2-1.7l-0.7-0.4l2.3-2.2l3.2-0.4l2.2-1.4l1.8,0.1l-0.8-1.1l4.3-2.4l1.3-2.6l-0.2-7.6
		l-0.2-0.4l-2.5-7.8l-1.4,1.2l-0.2-0.1l-0.1-0.7l1.2-0.7l0.1-1.2l0.8-0.5l2.5,0.5l0.6-0.9l0.2,0.6l1.1-3.6l0.3-2.1l-0.6-1.1
		l-0.5-0.2l-0.7-0.4l-7.4,1.8l-6.2,0.4l-9.7,1.7l-3.3,0.4l-1.4,1.6l-4.2,0.8l-3.2,0.4l-0.5,0.7l0.1-0.8l-2.2-1.2l-3.5-0.1l-3.3-0.4
		l-0.7,1l0.4-3.2l-2.7-1.8l-0.7-1.4l1-0.7l-1.1-0.1l0.9-0.4l-2.1,0.5l0.7,1.2l-0.7,0.2l0.5,1.2l1.1,0.7l-0.3,0.6l-1.2,0.5l0.5-1.4
		l-1.1,0.1l-1.1,2.1l-0.8-2l-1.3-0.3l-0.4,0.7l-1,0.1l-0.5,1.1l-1.2-0.8l-2.3-0.9l-1.7-1.6v0.1l-1.2,1.3l1-1.8l5.1-0.7l1-0.7
		l-0.5-0.6l1.1-1.9l1.4-0.4l0.7,0.6l0.2-0.5l0.6,1.6l2.4-0.3l0.7-0.8l-0.2-1.8l-1.5-1.3l-1.9,0.1l-0.8-0.5l-3,0.4l-2.1-1l-0.2,0.6
		l-0.6-0.5l-1.4,0.3l-0.5-0.6l-5.3,0.7l-0.7,1.7l0.7,0.3l-0.9,0.1l0.3,0.9l-5.2,1.5l-3.9-0.7l-0.7-1.6l-2.8,1.3l-3.9-2.8l-0.9,2.9
		l-2.1,1.2l-0.5,1.7l-0.6-0.2l-0.4,2.4l1,1.8l-1,0.1l0.4,2.4l-1,2.8H535v1.6l-2.2,1.5l0.2,2.5l-3,0.1l-0.7-1.6l-1.2,1.8l-1-4
		l-0.9-0.5l-0.2,0.4l-0.6-0.8l-1-0.1l-0.8,0.7l-0.1,1.1l-1.8,0.3l-0.8,2l-2.2,1.7l-0.9-1.5h-1.2l-0.1-2.2l-2.2-2.1l-0.7-0.2
		l-1.5,1.6l-0.7-0.8l0.8-0.8l-0.4-1.5L510,799v-1.4l-1.1,0.1l-1.8,1.9l-1.1,3l-1.2,1l-0.4-0.1l-0.1-2.2l1.5-3.4l-0.8-1.6l-0.7,0.2
		l-2.2-2.2l-2.1,0.3l0.2-1.1l-0.4-0.4l-1.8-0.9l-1.4,0.2l-0.5-1l-0.7,0.2l-0.2-2l-3.5-1.3l0.4-1.3l0.9-1.5l0.5-1.4l-0.7-1.1
		l-0.3-2.3l1.2-2.2l-0.9-2.2l-0.8-2.4l-1.5-0.6l-1.5,1.4l1.3-1.4l-1.2-3.6l0.5-1.2l-0.4-1.2l1,0.2l0.1-1l0.4,0.2l0.7-0.8l-0.4-0.8
		l-0.9,0.1v-0.3l-1.5,0.2l0.1-1.8l-1.3-1.6l0.8-1.2l-0.2-1.2l-0.6-0.6l-0.6,0.5l-1-1.8l-1.8,0.5l-4.1-2.2l-1.2-2.6l0.3-0.8l-1.7-2.2
		l-1,0.3l-1.5-2.6l1.9-1.7l1.4-0.1l0.6,1l-0.5,0.9l1.9,2.7l1.3,0.2l1-0.7l3.5,1.4l1.7-2.7l0.2,0.5l0.6,0.2l0.4-0.8l-3.2-4.2
		l-1.7-0.5l-0.8-1.1l-2.2-0.1l-1.4-1.6l-1.3,0.2l-0.7-1l1.2-3.6l0.8-0.2l-0.2-1.3l0.7,0.1l0.6-1.5l0.5-0.3l-1.2-3l1.2-1.2l-0.5-0.8
		l0.7-0.6l-0.2-1.5l-1.8-1.2l2.4-3.5l1.7-1.2l0.9-2.1l-1.1-2.5l-1.8-0.4l-0.5-1.6l0.7-0.2l0.2-2.9l-1.1-0.8L479.4,709.2z
		 M437.5,860.6l0.1,0.2l0.2-0.2l0.1-0.2l0.1-0.4l-0.2,0.6L437.5,860.6L437.5,860.6z M419.9,872.1l1,0.5l-0.4-0.3L419.9,872.1z
		 M577.3,788.3l0.4,1.1l-0.9,1.5l0.9,0.8l-1,0.7l-0.8-0.5l0.7,1.4l2.3,1.3l0.2,2l2.5-0.2h0.1l2.4,0.7l1.2-0.2l2.7,1l3.6-2.2
		l-3.6-4.6l-5.3-0.8l-2.4-1.4L577.3,788.3z M572,791l-0.3,0.5l2,0.3l-0.4-0.8H572z M573.8,792.2l-1.7,0.6l0.5,1h1.6L573.8,792.2z
		 M565.2,793l-0.2,0.6l1.5-0.1L565.2,793z M461.3,858.2l-1.2,0.8l-0.5,3.2l-2.1,0.2l0.2,1.1l5.8,0.9v-1l-1.5,0.7l0.5-0.7l-1-0.1
		l0.9-1.4l-1.2-0.2l-0.3-0.6l0.7-0.1l0.5,0.2l0.4-1.8L461.3,858.2z M463.3,858.7l-0.1,1.6l2.1,1.3l0.2-1.5l-0.3-1.2L463.3,858.7z
		 M452.4,859.8l-0.3,0.8l0.5-0.2L452.4,859.8z M438.4,865.9l-1.4,0.2l-2.2,2.8l-3.9,1.5l1.7,0.3l-1.2,0.2l-0.8,1.2l0.2-1.2l-0.6-0.4
		h0.3l-0.7-0.2l-3.1,1.9l-2.2,0.4l-0.2,0.3l0.1-0.4h-1.2l-1.8,3.1l-2.6,1.7l7-0.5l2.6,2.5l4.1,1.8l6.6,5.7l7.6-2.6l1.8-5.8l1.8-1.3
		l2.5-0.4l1.9-2l-0.8-1.2l-1.8,0.1l0.3-0.7l0.3,0.2l-0.8-2.6l-3.5-1.2l-3.5-0.1l-0.6,0.4l0.4-0.8l-1.8-0.6l-0.6-0.9l-2-1.6l-1.1,0.2
		l0.7,3.8L438.4,865.9z M420.9,871.9l0.1,0.7l0.2,0.1L420.9,871.9z"/>
</a>
<a>
	<path id="london" class="st1" d="M518.6,763.3l-0.8,0.3l-3.1,0.2l1,0.7l0,0l-1-0.7l-0.6,1.7l-0.7,0.5l-0.6,0.5l-0.8-0.7l-0.6,1
		l-2.6,0.7l-0.4,1.5l-0.4-0.3l-2.2,1l-0.6-0.2l-0.8-0.3l-3.1,2l-0.3,0.3l-0.7,0.3l-1.8,0.5l-2.5-0.7l-1.1,0.9l-2.9-2v3.4l0.8,2.4
		l0.9,2.2l-1.2,2.2l0.3,2.3l0.7,1.1l-0.5,1.4L492,787l-0.4,1.3l3.5,1.3l0.2,2l0.7-0.2l0.5,1l1.4-0.2l1.8,0.9l0.4,0.4l-0.2,1.1
		l2.1-0.3l2.2,2.2l0.7-0.2l0.8,1.6l-1.5,3.4l0.1,2.2l0.4,0.1l1.2-1l1.1-3l1.8-1.9l1.1-0.1v1.4l1.6,1.1l0.4,1.5l-0.8,0.8l0.7,0.8
		l1.5-1.6l0.7,0.2l2.2,2.1l0.1,2.2h1.2l0.9,1.5l2.2-1.7l0.8-2l1.8-0.3l0.1-1.1l0.8-0.7l1,0.1l0.6,0.8l0.2-0.4l0.9,0.5l1,4l1.2-1.8
		l0.7,1.6l3-0.1l-0.2-2.5l2.2-1.5v-1.6h1.3l1-2.8l-0.4-2.4l1-0.1l-1-1.8l0.4-2.4l0.6,0.2l0.5-1.7l2.1-1.2l0.9-2.9l-0.5-1l0.2-0.6
		l1.1-0.5l-0.2-0.8l1.1-0.2l-0.4-1.2h0.6l0.2-1.1l0.3,1.2h0.7l0.1-1.6l3.8-1h0.8l-1.6-2.7l-1.5,0.2l-1.5-3.8l-1.1-0.2l0.7-0.8
		l-0.8-1l-2-1.5l-1.6,0.8h-0.2l-3.9,0.3l-0.7,0.2l-2.5,0.9l-0.2,0.9l-1.1,0.1l-2.2-1.2l-1.3-1.3l0.2-1l-2.6-0.9l-0.1-3.8
		L518.6,763.3L518.6,763.3z"/>
</a>
<text transform="matrix(1 0 0 1 500.699 709.0127)" class="st2 st3 st4">East of England</text>
<text transform="matrix(1 0 0 1 441.5505 366.7702)" class="st5 st3 st4">North East</text>
</svg>
